<?xml version="1.0" encoding="utf-8"?>
<!-- Generator: Adobe Illustrator 22.1.0, SVG Export Plug-In . SVG Version: 6.00 Build 0)  -->
<svg version="1.2" baseProfile="tiny" id="レイヤー_1"
	 xmlns="http://www.w3.org/2000/svg" xmlns:xlink="http://www.w3.org/1999/xlink" x="0px" y="0px" viewBox="0 0 416 512"
	 xml:space="preserve">
<g>
	<polygon points="192,48 192,112 297.37,112 122.98,286.39 177.61,341.02 352,166.63 352,272 416,272 416,48 	"/>
	<path d="M368,336v50.67c0,16.17-13.16,29.33-29.33,29.33H77.33C61.16,416,48,402.84,48,386.67V125.33C48,109.16,61.16,96,77.33,96
		H128V48H64C28.65,48,0,76.65,0,112v288c0,35.35,28.65,64,64,64h288c35.35,0,64-28.65,64-64v-64H368z"/>
</g>
</svg>
