<?xml version="1.0" encoding="utf-8"?>
<!-- Generator: Adobe Illustrator 22.1.0, SVG Export Plug-In . SVG Version: 6.00 Build 0)  -->
<svg version="1.2" baseProfile="tiny" id="レイヤー_1"
	 xmlns="http://www.w3.org/2000/svg" xmlns:xlink="http://www.w3.org/1999/xlink" x="0px" y="0px" viewBox="0 0 416 512"
	 xml:space="preserve">
<path d="M346.51,112v224h-32V166.63L92.12,389.02l-22.63-22.63L291.88,144H122.51v-32H346.51z M352,80H64c-17.64,0-32,14.36-32,32
	v288c0,17.64,14.36,32,32,32h288c17.64,0,32-14.36,32-32V112C384,94.36,369.64,80,352,80 M352,48c35.35,0,64,28.65,64,64v288
	c0,35.35-28.65,64-64,64H64c-35.35,0-64-28.65-64-64V112c0-35.35,28.65-64,64-64H352L352,48z"/>
</svg>
