<?xml version="1.0" encoding="utf-8"?>
<!-- Generator: Adobe Illustrator 23.0.0, SVG Export Plug-In . SVG Version: 6.00 Build 0)  -->
<svg version="1.2" baseProfile="tiny" id="レイヤー_1"
	 xmlns="http://www.w3.org/2000/svg" xmlns:xlink="http://www.w3.org/1999/xlink" x="0px" y="0px" viewBox="0 0 448 512"
	 xml:space="preserve">
<path d="M345.89,276.88c-13.5-13.3-55-9.2-73.7-6.7c-21.2-12.8-35.2-30.4-45.1-56.6c4.3-18,12-47.2,6.4-64.9
	c-4.4-28.1-39.7-24.7-44.6-6.8c-5,18.3-0.3,44.4,8.4,77.8c-11.9,28.4-29.7,66.9-42.1,88.6c-20.8,10.7-54.1,29.3-58.8,52.4
	c-3.5,16.8,22.9,39.4,53.1,6.4c9.1-9.9,19.3-24.8,31.3-45.5c26.7-8.8,56.1-19.8,82-24c21.9,12,47.6,19.9,64.6,19.9
	C355.09,317.58,356.29,287.28,345.89,276.88L345.89,276.88z M116.69,365.88c5.9-15.9,28.6-34.4,35.5-40.8
	C130.09,360.38,116.69,366.58,116.69,365.88z M211.89,143.58c8.7,0,7.8,37.5,2.1,47.6C208.79,174.88,208.99,143.58,211.89,143.58z
	 M183.49,302.88c11.3-19.8,21-43.2,28.8-63.7c9.7,17.7,22.1,31.7,35.1,41.5C223.09,285.38,201.99,295.78,183.49,302.88z
	 M336.89,296.98c0,0-5.8,7-43.5-9.1C334.39,284.88,341.09,294.28,336.89,296.98z M448,256c0,123.71-100.29,224-224,224
	S0,379.71,0,256S100.29,32,224,32S448,132.29,448,256z"/>
</svg>
