<?xml version="1.0" encoding="utf-8"?>
<!-- Generator: Adobe Illustrator 23.0.0, SVG Export Plug-In . SVG Version: 6.00 Build 0)  -->
<svg version="1.2" baseProfile="tiny" id="レイヤー_1"
	 xmlns="http://www.w3.org/2000/svg" xmlns:xlink="http://www.w3.org/1999/xlink" x="0px" y="0px" viewBox="0 0 384 512"
	 xml:space="preserve">
<path d="M80,272h32v32H80V272z M256,0v128h128L256,0z M304,272h-32v32h32V272z M80,368h32v-32H80V368z M224,160h160v352H0V0h224V160
	z M112,224v16H80v-16H48v192h32v-16h32v16h160v-16h32v16h32V224h-32v16h-32v-16H112z M240,256h-96v124h96V256z M304,336h-32v32h32
	V336z"/>
</svg>
