<?xml version="1.0" encoding="utf-8"?>
<!-- Generator: Adobe Illustrator 23.0.0, SVG Export Plug-In . SVG Version: 6.00 Build 0)  -->
<svg version="1.2" baseProfile="tiny" id="レイヤー_1"
	 xmlns="http://www.w3.org/2000/svg" xmlns:xlink="http://www.w3.org/1999/xlink" x="0px" y="0px" viewBox="0 0 448 512"
	 xml:space="preserve">
<path d="M257.5,352L224,289.55L190.5,352H134l57.5-96L136,160h52.5l35.5,63.7l35.5-63.7H312l-55.5,96l57.5,96H257.5z M448,256
	c0,123.71-100.29,224-224,224S0,379.71,0,256S100.29,32,224,32S448,132.29,448,256z M224,64C117.96,64,32,149.96,32,256
	s85.96,192,192,192s192-85.96,192-192S330.04,64,224,64z"/>
</svg>
