<?xml version="1.0" encoding="utf-8"?>
<!-- Generator: Adobe Illustrator 23.0.0, SVG Export Plug-In . SVG Version: 6.00 Build 0)  -->
<svg version="1.2" baseProfile="tiny" id="レイヤー_1"
	 xmlns="http://www.w3.org/2000/svg" xmlns:xlink="http://www.w3.org/1999/xlink" x="0px" y="0px" viewBox="0 0 448 512"
	 xml:space="preserve">
<g>
	<path d="M211.89,143.58c-2.9,0-3.1,31.3,2.1,47.6C219.69,181.08,220.59,143.58,211.89,143.58z"/>
	<path d="M212.29,239.18c-7.8,20.5-17.5,43.9-28.8,63.7c18.5-7.1,39.6-17.5,63.9-22.2C234.39,270.88,221.99,256.88,212.29,239.18z"
		/>
	<path d="M116.69,365.88c0,0.7,13.4-5.5,35.5-40.8C145.29,331.48,122.59,349.98,116.69,365.88z"/>
	<path d="M384,32H64C28.65,32,0,60.65,0,96v320c0,35.35,28.65,64,64,64h320c35.35,0,64-28.65,64-64V96C448,60.65,419.35,32,384,32z
		 M327.39,317.48c-17,0-42.7-7.9-64.6-19.9c-25.9,4.2-55.3,15.2-82,24c-12,20.7-22.2,35.6-31.3,45.5c-30.2,33-56.6,10.4-53.1-6.4
		c4.7-23.1,38-41.7,58.8-52.4c12.4-21.7,30.2-60.2,42.1-88.6c-8.7-33.4-13.4-59.5-8.4-77.8c4.9-17.9,40.2-21.3,44.6,6.8
		c5.6,17.7-2.1,46.9-6.4,64.9c9.9,26.2,23.9,43.8,45.1,56.6c18.7-2.5,60.2-6.6,73.7,6.7v0
		C356.29,287.28,355.09,317.58,327.39,317.48z"/>
	<path d="M293.39,287.88c37.7,16.1,43.5,9.1,43.5,9.1C341.09,294.28,334.39,284.88,293.39,287.88z"/>
</g>
</svg>
