<?xml version="1.0" encoding="utf-8"?>
<!-- Generator: Adobe Illustrator 23.0.0, SVG Export Plug-In . SVG Version: 6.00 Build 0)  -->
<svg version="1.2" baseProfile="tiny" id="レイヤー_1"
	 xmlns="http://www.w3.org/2000/svg" xmlns:xlink="http://www.w3.org/1999/xlink" x="0px" y="0px" viewBox="0 0 512 512"
	 xml:space="preserve">
<path d="M480,64v32h-64V64H96v32H32V64H0v384h32v-32h64v32h320v-32h64v32h32V64H480z M96,128v64H32v-64H96z M96,224v64H32v-64H96z
	 M32,384v-64h64v64H32z M368,96v144H144V96H368z M144,416V272h224v144H144z M480,128v64h-64v-64H480z M480,224v64h-64v-64H480z
	 M416,384v-64h64v64H416z"/>
</svg>
