<?xml version="1.0" encoding="utf-8"?>
<!-- Generator: Adobe Illustrator 23.0.0, SVG Export Plug-In . SVG Version: 6.00 Build 0)  -->
<svg version="1.2" baseProfile="tiny" id="レイヤー_1"
	 xmlns="http://www.w3.org/2000/svg" xmlns:xlink="http://www.w3.org/1999/xlink" x="0px" y="0px" viewBox="0 0 448 512"
	 xml:space="preserve">
<path d="M336,160v16h-32v-16H144v16h-32v-16H80v192h32v-16h32v16h160v-16h32v16h32V160H336z M144,304h-32v-32h32V304z M144,240h-32
	v-32h32V240z M272,316h-96V192h96V316z M336,304h-32v-32h32V304z M336,240h-32v-32h32V240z M448,256c0,123.71-100.29,224-224,224
	S0,379.71,0,256S100.29,32,224,32S448,132.29,448,256z M224,64C117.96,64,32,149.96,32,256s85.96,192,192,192s192-85.96,192-192
	S330.04,64,224,64z"/>
</svg>
