<?xml version="1.0" encoding="utf-8"?>
<!-- Generator: Adobe Illustrator 23.0.0, SVG Export Plug-In . SVG Version: 6.00 Build 0)  -->
<svg version="1.2" baseProfile="tiny" id="レイヤー_1"
	 xmlns="http://www.w3.org/2000/svg" xmlns:xlink="http://www.w3.org/1999/xlink" x="0px" y="0px" viewBox="0 0 448 512"
	 xml:space="preserve">
<g>
	<rect x="176" y="192" width="96" height="124"/>
	<rect x="112" y="208" width="32" height="32"/>
	<rect x="304" y="272" width="32" height="32"/>
	<rect x="112" y="272" width="32" height="32"/>
	<path d="M384,32H64C28.65,32,0,60.65,0,96v320c0,35.35,28.65,64,64,64h320c35.35,0,64-28.65,64-64V96C448,60.65,419.35,32,384,32z
		 M368,352h-32v-16h-32v16H144v-16h-32v16H80V160h32v16h32v-16h160v16h32v-16h32V352z"/>
	<rect x="304" y="208" width="32" height="32"/>
</g>
</svg>
