<?xml version="1.0" encoding="utf-8"?>
<!-- Generator: Adobe Illustrator 23.0.0, SVG Export Plug-In . SVG Version: 6.00 Build 0)  -->
<svg version="1.2" baseProfile="tiny" id="レイヤー_1"
	 xmlns="http://www.w3.org/2000/svg" xmlns:xlink="http://www.w3.org/1999/xlink" x="0px" y="0px" viewBox="0 0 448 512"
	 xml:space="preserve">
<path d="M351.12,160L305.2,352h-48.22L225,235.8L193.05,352h-48.18l-48-192h48.5l28.33,136l34.92-136h32.75l34.92,136l26.33-136
	H351.12z"/>
<path d="M384,64H64c-17.64,0-32,14.36-32,32v320c0,17.64,14.36,32,32,32h320c17.64,0,32-14.36,32-32V96C416,78.36,401.64,64,384,64
	 M384,32c35.35,0,64,28.65,64,64v320c0,35.35-28.65,64-64,64H64c-35.35,0-64-28.65-64-64V96c0-35.35,28.65-64,64-64H384L384,32z"/>
</svg>
