<?xml version="1.0" encoding="utf-8"?>
<!-- Generator: Adobe Illustrator 23.0.0, SVG Export Plug-In . SVG Version: 6.00 Build 0)  -->
<svg version="1.2" baseProfile="tiny" id="レイヤー_1"
	 xmlns="http://www.w3.org/2000/svg" xmlns:xlink="http://www.w3.org/1999/xlink" x="0px" y="0px" viewBox="0 0 448 512"
	 xml:space="preserve">
<path d="M192,256c0,0-32,86-32,112s28.65,48,64,48s64-22,64-48s-32-112-32-112s-16,0-32,0v-32h-32V256z M256,368
	c0,8.84-14.33,16-32,16s-32-7.16-32-16s14.33-16,32-16S256,359.16,256,368z M224,224v-32h32v32H224z M192,160h32v32h-32V160z
	 M224,160v-32h32v32H224z M192,96h32v32h-32V96z M384,32H64C28.65,32,0,60.65,0,96v320c0,35.35,28.65,64,64,64h320
	c35.35,0,64-28.65,64-64V96C448,60.65,419.35,32,384,32z M416,416c0,17.64-14.36,32-32,32H64c-17.64,0-32-14.36-32-32V96
	c0-17.64,14.36-32,32-32h160v32h32V64h128c17.64,0,32,14.36,32,32V416z"/>
</svg>
