<?xml version="1.0" encoding="utf-8"?>
<!-- Generator: Adobe Illustrator 23.0.0, SVG Export Plug-In . SVG Version: 6.00 Build 0)  -->
<svg version="1.2" baseProfile="tiny" id="レイヤー_1"
	 xmlns="http://www.w3.org/2000/svg" xmlns:xlink="http://www.w3.org/1999/xlink" x="0px" y="0px" viewBox="0 0 384 512"
	 xml:space="preserve">
<path d="M314,308.8c-13.5-13.3-55-9.2-73.7-6.7c-21.2-12.8-35.2-30.4-45.1-56.6c4.3-18,12-47.2,6.4-64.9
	c-4.4-28.1-39.7-24.7-44.6-6.8c-5,18.3-0.3,44.4,8.4,77.8c-11.9,28.4-29.7,66.9-42.1,88.6c-20.8,10.7-54.1,29.3-58.8,52.4
	C61,409.4,87.4,432,117.6,399c9.1-9.9,19.3-24.8,31.3-45.5c26.7-8.8,56.1-19.8,82-24c21.9,12,47.6,19.9,64.6,19.9
	C323.2,349.5,324.4,319.2,314,308.8L314,308.8z M84.8,397.8c5.9-15.9,28.6-34.4,35.5-40.8C98.2,392.3,84.8,398.5,84.8,397.8z
	 M180,175.5c8.7,0,7.8,37.5,2.1,47.6C176.9,206.8,177.1,175.5,180,175.5z M151.6,334.8c11.3-19.8,21-43.2,28.8-63.7
	c9.7,17.7,22.1,31.7,35.1,41.5C191.2,317.3,170.1,327.7,151.6,334.8z M305,328.9c0,0-5.8,7-43.5-9.1
	C302.5,316.8,309.2,326.2,305,328.9z M256,0H0v512h384V128L256,0z M354.75,128H256V29.25L354.75,128z M368,496H16V16h224v128h128
	V496z"/>
</svg>
