<?xml version="1.0" encoding="utf-8"?>
<!-- Generator: Adobe Illustrator 23.0.0, SVG Export Plug-In . SVG Version: 6.00 Build 0)  -->
<svg version="1.2" baseProfile="tiny" id="レイヤー_1"
	 xmlns="http://www.w3.org/2000/svg" xmlns:xlink="http://www.w3.org/1999/xlink" x="0px" y="0px" viewBox="0 0 384 512"
	 xml:space="preserve">
<path d="M182.1,255.1c-5.2-16.3-5-47.6-2.1-47.6C188.7,207.5,187.8,245,182.1,255.1z M180.4,303.1c-7.8,20.5-17.5,43.9-28.8,63.7
	c18.5-7.1,39.6-17.5,63.9-22.2C202.5,334.8,190.1,320.8,180.4,303.1z M256,0v128h128L256,0z M84.8,429.8c0,0.7,13.4-5.5,35.5-40.8
	C113.4,395.4,90.7,413.9,84.8,429.8z M224,160h160v352H0V0h224V160z M195.2,277.5c4.3-18,12-47.2,6.4-64.9
	c-4.4-28.1-39.7-24.7-44.6-6.8c-5,18.3-0.3,44.4,8.4,77.8c-11.9,28.4-29.7,66.9-42.1,88.6c-20.8,10.7-54.1,29.3-58.8,52.4
	C61,441.4,87.4,464,117.6,431c9.1-9.9,19.3-24.8,31.3-45.5c26.7-8.8,56.1-19.8,82-24c21.9,12,47.6,19.9,64.6,19.9
	c27.7,0.1,28.9-30.2,18.5-40.6v0c-13.5-13.3-55-9.2-73.7-6.7C219.1,321.3,205.1,303.7,195.2,277.5z M305,360.9
	c4.2-2.7-2.5-12.1-43.5-9.1C299.2,367.9,305,360.9,305,360.9z"/>
</svg>
