<?xml version="1.0" encoding="utf-8"?>
<!-- Generator: Adobe Illustrator 23.0.0, SVG Export Plug-In . SVG Version: 6.00 Build 0)  -->
<svg version="1.2" baseProfile="tiny" id="レイヤー_1"
	 xmlns="http://www.w3.org/2000/svg" xmlns:xlink="http://www.w3.org/1999/xlink" x="0px" y="0px" viewBox="0 0 384 512"
	 xml:space="preserve">
<path d="M160,336c0,8.84-14.33,16-32,16s-32-7.16-32-16s14.33-16,32-16S160,327.16,160,336z M224,160h160v352H0V0h224V160z M192,336
	c0-26-32-112-32-112s-16,0-32,0v-32h32v-32h-32v-32h32V96h-32V64h32V32h-32v32H96v32h32v32H96v32h32v32H96v32c0,0-32,86-32,112
	s28.65,48,64,48S192,362,192,336z M256,0v128h128L256,0z"/>
</svg>
