<?xml version="1.0" encoding="utf-8"?>
<!-- Generator: Adobe Illustrator 23.0.0, SVG Export Plug-In . SVG Version: 6.00 Build 0)  -->
<svg version="1.2" baseProfile="tiny" id="レイヤー_1"
	 xmlns="http://www.w3.org/2000/svg" xmlns:xlink="http://www.w3.org/1999/xlink" x="0px" y="0px" viewBox="0 0 256 512"
	 xml:space="preserve">
<path d="M128,144c29.92,0,58.04,11.65,79.2,32.8c21.15,21.15,32.8,49.28,32.8,79.2s-11.65,58.04-32.8,79.2
	C186.04,356.35,157.92,368,128,368s-58.04-11.65-79.2-32.8C27.65,314.04,16,285.92,16,256s11.65-58.04,32.8-79.2
	C69.96,155.65,98.08,144,128,144 M128,128C57.31,128,0,185.31,0,256s57.31,128,128,128s128-57.31,128-128S198.69,128,128,128
	L128,128z"/>
</svg>
