<?xml version="1.0" encoding="utf-8"?>
<!-- Generator: Adobe Illustrator 23.0.0, SVG Export Plug-In . SVG Version: 6.00 Build 0)  -->
<svg version="1.2" baseProfile="tiny" id="レイヤー_1"
	 xmlns="http://www.w3.org/2000/svg" xmlns:xlink="http://www.w3.org/1999/xlink" x="0px" y="0px" viewBox="0 0 448 512"
	 xml:space="preserve">
<path d="M384,64H64c-17.64,0-32,14.36-32,32v320c0,17.64,14.36,32,32,32h320c17.64,0,32-14.36,32-32V96C416,78.36,401.64,64,384,64
	 M384,32c35.35,0,64,28.65,64,64v320c0,35.35-28.65,64-64,64H64c-35.35,0-64-28.65-64-64V96c0-35.35,28.65-64,64-64H384L384,32z
	 M190.06,312.57l-90.51-90.51l-22.63,22.63l113.14,113.14L371.08,176.8l-22.63-22.63L190.06,312.57z"/>
</svg>
