<?xml version="1.0" encoding="utf-8"?>
<!-- Generator: Adobe Illustrator 23.0.0, SVG Export Plug-In . SVG Version: 6.00 Build 0)  -->
<svg version="1.2" baseProfile="tiny" id="レイヤー_1"
	 xmlns="http://www.w3.org/2000/svg" xmlns:xlink="http://www.w3.org/1999/xlink" x="0px" y="0px" viewBox="0 0 448 512"
	 xml:space="preserve">
<path d="M352,264H126.63l119.28,119.28l-11.31,11.31L96,256l138.59-138.59l11.31,11.31L126.63,248H352V264z M384,32H64
	C28.65,32,0,60.65,0,96v320c0,35.35,28.65,64,64,64h320c35.35,0,64-28.65,64-64V96C448,60.65,419.35,32,384,32L384,32z M380,464H68
	c-28.72,0-52-23.28-52-52V100c0-28.72,23.28-52,52-52h312c28.72,0,52,23.28,52,52v312C432,440.72,408.72,464,380,464z"/>
</svg>
