<?xml version="1.0" encoding="utf-8"?>
<!-- Generator: Adobe Illustrator 23.0.0, SVG Export Plug-In . SVG Version: 6.00 Build 0)  -->
<svg version="1.2" baseProfile="tiny" id="レイヤー_1"
	 xmlns="http://www.w3.org/2000/svg" xmlns:xlink="http://www.w3.org/1999/xlink" x="0px" y="0px" viewBox="0 0 448 512"
	 xml:space="preserve">
<path d="M384,32H64C28.65,32,0,60.65,0,96v320c0,35.35,28.65,64,64,64h320c35.35,0,64-28.65,64-64V96C448,60.65,419.35,32,384,32
	L384,32z M370.67,80C386.84,80,400,93.16,400,109.33v293.33c0,16.17-13.16,29.33-29.33,29.33H77.33C61.16,432,48,418.84,48,402.67
	V109.33C48,93.16,61.16,80,77.33,80H370.67 M352,280H187.88l81.14,81.14l-33.94,33.94L96,256l139.08-139.08l33.94,33.94L187.88,232
	H352V280z"/>
</svg>
