<?xml version="1.0" encoding="utf-8"?>
<!-- Generator: Adobe Illustrator 22.1.0, SVG Export Plug-In . SVG Version: 6.00 Build 0)  -->
<svg version="1.2" baseProfile="tiny" id="レイヤー_1"
	 xmlns="http://www.w3.org/2000/svg" xmlns:xlink="http://www.w3.org/1999/xlink" x="0px" y="0px" viewBox="0 0 448 512"
	 xml:space="preserve">
<path d="M224,32C100.29,32,0,132.29,0,256s100.29,224,224,224s224-100.29,224-224S347.71,32,224,32z M400,256
	c0,97.2-78.8,176-176,176S48,353.2,48,256S126.8,80,224,80S400,158.8,400,256z"/>
<polygon points="352,232 187.88,232 269.02,150.86 235.08,116.92 96,256 235.08,395.08 269.02,361.14 187.88,280 352,280 "/>
</svg>
