<?xml version="1.0" encoding="utf-8"?>
<!-- Generator: Adobe Illustrator 23.0.0, SVG Export Plug-In . SVG Version: 6.00 Build 0)  -->
<svg version="1.2" baseProfile="tiny" id="レイヤー_1"
	 xmlns="http://www.w3.org/2000/svg" xmlns:xlink="http://www.w3.org/1999/xlink" x="0px" y="0px" viewBox="0 0 448 512"
	 xml:space="preserve">
<path d="M351.28,277.91L232,158.63V384h-16V158.63L96.72,277.91l-11.31-11.31L224,128l138.59,138.59L351.28,277.91z M0,96v320
	c0,35.35,28.65,64,64,64h320c35.35,0,64-28.65,64-64V96c0-35.35-28.65-64-64-64H64C28.65,32,0,60.65,0,96L0,96z M432,100v312
	c0,28.72-23.28,52-52,52H68c-28.72,0-52-23.28-52-52V100c0-28.72,23.28-52,52-52h312C408.72,48,432,71.28,432,100z"/>
</svg>
