<?xml version="1.0" encoding="utf-8"?>
<!-- Generator: Adobe Illustrator 23.0.0, SVG Export Plug-In . SVG Version: 6.00 Build 0)  -->
<svg version="1.2" baseProfile="tiny" id="レイヤー_1"
	 xmlns="http://www.w3.org/2000/svg" xmlns:xlink="http://www.w3.org/1999/xlink" x="0px" y="0px" viewBox="0 0 448 512"
	 xml:space="preserve">
<path d="M362.59,245.41L224,384L85.41,245.41l11.31-11.31L216,353.37V128h16v225.37l119.28-119.28L362.59,245.41z M448,416V96
	c0-35.35-28.65-64-64-64H64C28.65,32,0,60.65,0,96v320c0,35.35,28.65,64,64,64h320C419.35,480,448,451.35,448,416L448,416z M16,412
	V100c0-28.72,23.28-52,52-52h312c28.72,0,52,23.28,52,52v312c0,28.72-23.28,52-52,52H68C39.28,464,16,440.72,16,412z"/>
</svg>
