<?xml version="1.0" encoding="utf-8"?>
<!-- Generator: Adobe Illustrator 23.0.0, SVG Export Plug-In . SVG Version: 6.00 Build 0)  -->
<svg version="1.2" baseProfile="tiny" id="レイヤー_1"
	 xmlns="http://www.w3.org/2000/svg" xmlns:xlink="http://www.w3.org/1999/xlink" x="0px" y="0px" viewBox="0 0 448 512"
	 xml:space="preserve">
<path d="M352,256L216.24,391.76l-22.63-22.63L290.75,272H96v-32h194.75l-97.14-97.14l22.63-22.63L352,256z M384,64
	c17.64,0,32,14.36,32,32v320c0,17.64-14.36,32-32,32H64c-17.64,0-32-14.36-32-32V96c0-17.64,14.36-32,32-32H384 M384,32H64
	C28.65,32,0,60.65,0,96v320c0,35.35,28.65,64,64,64h320c35.35,0,64-28.65,64-64V96C448,60.65,419.35,32,384,32L384,32z"/>
</svg>
