<?xml version="1.0" encoding="utf-8"?>
<!-- Generator: Adobe Illustrator 23.0.0, SVG Export Plug-In . SVG Version: 6.00 Build 0)  -->
<svg version="1.2" baseProfile="tiny" id="レイヤー_1"
	 xmlns="http://www.w3.org/2000/svg" xmlns:xlink="http://www.w3.org/1999/xlink" x="0px" y="0px" viewBox="0 0 512 512"
	 xml:space="preserve">
<g>
	<polygon points="362,384 362,192 448,192 256,0 64,192 152,192 152,384 	"/>
	<path d="M394,352v64H120v-64H0v160h512V352H394z M368,485c-11.6,0-21-9.4-21-21s9.4-21,21-21s21,9.4,21,21S379.6,485,368,485z
		 M432,485c-11.6,0-21-9.4-21-21s9.4-21,21-21s21,9.4,21,21S443.6,485,432,485z"/>
</g>
</svg>
