<?xml version="1.0" encoding="utf-8"?>
<!-- Generator: Adobe Illustrator 23.0.0, SVG Export Plug-In . SVG Version: 6.00 Build 0)  -->
<svg version="1.2" baseProfile="tiny" id="レイヤー_1"
	 xmlns="http://www.w3.org/2000/svg" xmlns:xlink="http://www.w3.org/1999/xlink" x="0px" y="0px" viewBox="0 0 512 512"
	 xml:space="preserve">
<g>
	<polygon points="150,0 150,192 64,192 256,384 448,192 360,192 360,0 	"/>
	<path d="M352,352l-96,96l-96-96H0v160h512V352H352z M368,485c-11.6,0-21-9.4-21-21c0-11.6,9.4-21,21-21s21,9.4,21,21
		C389,475.6,379.6,485,368,485z M432,485c-11.6,0-21-9.4-21-21c0-11.6,9.4-21,21-21s21,9.4,21,21C453,475.6,443.6,485,432,485z"/>
</g>
</svg>
