<?xml version="1.0" encoding="utf-8"?>
<!-- Generator: Adobe Illustrator 23.0.0, SVG Export Plug-In . SVG Version: 6.00 Build 0)  -->
<svg version="1.2" baseProfile="tiny" id="レイヤー_1"
	 xmlns="http://www.w3.org/2000/svg" xmlns:xlink="http://www.w3.org/1999/xlink" x="0px" y="0px" viewBox="0 0 512 512"
	 xml:space="preserve">
<path d="M372.96,350.34h-13.31C394.59,313.13,416,263.07,416,208C416,93.12,322.88,0,208,0S0,93.12,0,208s93.12,208,208,208
	c55.07,0,105.13-21.41,142.34-56.34v13.31L489.37,512l9.9-1.41l11.31-11.31l1.41-9.9L372.96,350.34z M208,400
	c-106.04,0-192-85.96-192-192S101.96,16,208,16s192,85.96,192,192S314.04,400,208,400z M216,200h104v16H216v104h-16V216H96v-16h104
	V96h16V200z"/>
</svg>
