<?xml version="1.0" encoding="utf-8"?>
<!-- Generator: Adobe Illustrator 23.0.0, SVG Export Plug-In . SVG Version: 6.00 Build 0)  -->
<svg version="1.2" baseProfile="tiny" id="レイヤー_1"
	 xmlns="http://www.w3.org/2000/svg" xmlns:xlink="http://www.w3.org/1999/xlink" x="0px" y="0px" viewBox="0 0 448 512"
	 xml:space="preserve">
<path d="M384,64H64c-17.64,0-32,14.36-32,32v320c0,17.64,14.36,32,32,32h320c17.64,0,32-14.36,32-32V96C416,78.36,401.64,64,384,64
	 M384,32c35.35,0,64,28.65,64,64v320c0,35.35-28.65,64-64,64H64c-35.35,0-64-28.65-64-64V96c0-35.35,28.65-64,64-64H384L384,32z
	 M264,168c0,22.09-17.91,40-40,40s-40-17.91-40-40s17.91-40,40-40S264,145.91,264,168z M272,336h-24V232c0-4.42-3.58-8-8-8h-64
	c-4.42,0-8,3.58-8,8v32c0,4.42,3.58,8,8,8h24v64h-24c-4.42,0-8,3.58-8,8v32c0,4.42,3.58,8,8,8h96c4.42,0,8-3.58,8-8v-32
	C280,339.58,276.42,336,272,336z"/>
</svg>
