<?xml version="1.0" encoding="utf-8"?>
<!-- Generator: Adobe Illustrator 23.0.0, SVG Export Plug-In . SVG Version: 6.00 Build 0)  -->
<svg version="1.2" baseProfile="tiny" id="レイヤー_1"
	 xmlns="http://www.w3.org/2000/svg" xmlns:xlink="http://www.w3.org/1999/xlink" x="0px" y="0px" viewBox="0 0 448 512"
	 xml:space="preserve">
<path d="M384,64H64c-17.64,0-32,14.36-32,32v320c0,17.64,14.36,32,32,32h320c17.64,0,32-14.36,32-32V96C416,78.36,401.64,64,384,64
	 M384,32c35.35,0,64,28.65,64,64v320c0,35.35-28.65,64-64,64H64c-35.35,0-64-28.65-64-64V96c0-35.35,28.65-64,64-64H384L384,32z
	 M224.24,126.75c-40.3,0-66.4,16.51-86.89,45.96c-3.72,5.34-2.57,12.67,2.61,16.6l21.78,16.51c5.24,3.97,12.69,3.04,16.79-2.09
	c12.65-15.84,22.03-24.97,41.78-24.97c15.53,0,34.74,10,34.74,25.06c0,11.39-9.4,17.23-24.74,25.83
	c-17.88,10.03-41.55,22.51-41.55,53.72v4.94c0,6.69,5.42,12.12,12.12,12.12h36.59c6.69,0,12.12-5.42,12.12-12.12v-2.91
	c0-21.64,63.25-22.54,63.25-81.1C312.84,160.2,267.09,126.75,224.24,126.75z M219.18,315.3c-19.28,0-34.97,15.69-34.97,34.97
	c0,19.28,15.69,34.97,34.97,34.97s34.97-15.69,34.97-34.97C254.15,330.99,238.46,315.3,219.18,315.3z"/>
</svg>
