<?xml version="1.0" encoding="utf-8"?>
<!-- Generator: Adobe Illustrator 23.0.0, SVG Export Plug-In . SVG Version: 6.00 Build 0)  -->
<svg version="1.2" baseProfile="tiny" id="レイヤー_1"
	 xmlns="http://www.w3.org/2000/svg" xmlns:xlink="http://www.w3.org/1999/xlink" x="0px" y="0px" viewBox="0 0 448 512"
	 xml:space="preserve">
<path d="M448,256c0,123.71-100.29,224-224,224S0,379.71,0,256S100.29,32,224,32S448,132.29,448,256z M224,64
	C117.96,64,32,149.96,32,256s85.96,192,192,192s192-85.96,192-192S330.04,64,224,64z M264,168c0,22.09-17.91,40-40,40
	s-40-17.91-40-40s17.91-40,40-40S264,145.91,264,168z M272,336h-24V232c0-4.42-3.58-8-8-8h-64c-4.42,0-8,3.58-8,8v32
	c0,4.42,3.58,8,8,8h24v64h-24c-4.42,0-8,3.58-8,8v32c0,4.42,3.58,8,8,8h96c4.42,0,8-3.58,8-8v-32C280,339.58,276.42,336,272,336z"/>
</svg>
