<?xml version="1.0" encoding="utf-8"?>
<!-- Generator: Adobe Illustrator 23.0.0, SVG Export Plug-In . SVG Version: 6.00 Build 0)  -->
<svg version="1.2" baseProfile="tiny" id="レイヤー_1"
	 xmlns="http://www.w3.org/2000/svg" xmlns:xlink="http://www.w3.org/1999/xlink" x="0px" y="0px" viewBox="0 0 448 512"
	 xml:space="preserve">
<path d="M448,256c0,123.71-100.29,224-224,224S0,379.71,0,256S100.29,32,224,32S448,132.29,448,256z M224,64
	C117.96,64,32,149.96,32,256s85.96,192,192,192s192-85.96,192-192S330.04,64,224,64z M188.22,139.25l6.88,137.59
	c0.32,6.46,5.66,11.53,12.13,11.53h33.56c6.47,0,11.8-5.07,12.13-11.53l6.88-137.59c0.35-6.93-5.18-12.75-12.13-12.75h-47.32
	C193.4,126.5,187.87,132.31,188.22,139.25z M264.47,345.03c0,22.35-18.12,40.47-40.47,40.47s-40.47-18.12-40.47-40.47
	s18.12-40.47,40.47-40.47S264.47,322.68,264.47,345.03z"/>
</svg>
