<?xml version="1.0" encoding="utf-8"?>
<!-- Generator: Adobe Illustrator 23.0.0, SVG Export Plug-In . SVG Version: 6.00 Build 0)  -->
<svg version="1.2" baseProfile="tiny" id="レイヤー_1"
	 xmlns="http://www.w3.org/2000/svg" xmlns:xlink="http://www.w3.org/1999/xlink" x="0px" y="0px" viewBox="0 0 448 512"
	 xml:space="preserve">
<path d="M224,32C100.29,32,0,132.29,0,256s100.29,224,224,224s224-100.29,224-224S347.71,32,224,32z M224,128
	c22.09,0,40,17.91,40,40c0,22.09-17.91,40-40,40s-40-17.91-40-40C184,145.91,201.91,128,224,128z M280,376c0,4.42-3.58,8-8,8h-96
	c-4.42,0-8-3.58-8-8v-32c0-4.42,3.58-8,8-8h24v-64h-24c-4.42,0-8-3.58-8-8v-32c0-4.42,3.58-8,8-8h64c4.42,0,8,3.58,8,8v104h24
	c4.42,0,8,3.58,8,8V376z"/>
</svg>
