<?xml version="1.0" encoding="utf-8"?>
<!-- Generator: Adobe Illustrator 23.0.0, SVG Export Plug-In . SVG Version: 6.00 Build 0)  -->
<svg version="1.2" baseProfile="tiny" id="レイヤー_1"
	 xmlns="http://www.w3.org/2000/svg" xmlns:xlink="http://www.w3.org/1999/xlink" x="0px" y="0px" viewBox="0 0 512 512"
	 xml:space="preserve">
<path d="M253.5,32c-11.61,0-23.22,5.74-29.86,17.23L4.67,428.31C-8.6,451.28,7.99,480,34.53,480h437.94
	c26.54,0,43.13-28.72,29.86-51.69L283.36,49.23C276.72,37.74,265.11,32,253.5,32L253.5,32z M34.53,448c-0.5,0-1.44,0-2.15-1.24
	c-0.71-1.22-0.26-1.99,0-2.45L251.35,65.24c0.25-0.43,0.71-1.24,2.15-1.24s1.9,0.8,2.15,1.24l218.97,379.08
	c0.26,0.46,0.71,1.22,0,2.45c-0.71,1.24-1.65,1.24-2.15,1.24H34.53z M260.23,192c-34.92,0-57.54,14.31-75.3,39.82
	c-3.22,4.63-2.23,10.98,2.27,14.38l18.87,14.31c4.54,3.44,11,2.64,14.55-1.81c10.96-13.73,19.09-21.63,36.21-21.63
	c13.46,0,30.11,8.66,30.11,21.71c0,9.87-8.14,14.93-21.43,22.38c-15.5,8.69-36.01,19.5-36.01,46.55V332c0,5.8,4.7,10.5,10.5,10.5
	h31.71c5.8,0,10.5-4.7,10.5-10.5v-2.53c0-18.75,54.8-19.53,54.8-70.27C337,220.99,297.36,192,260.23,192z M255.84,355.39
	c-16.71,0-30.31,13.6-30.31,30.31c0,16.71,13.6,30.31,30.31,30.31c16.71,0,30.31-13.6,30.31-30.31S272.55,355.39,255.84,355.39z"/>
</svg>
