<?xml version="1.0" encoding="utf-8"?>
<!-- Generator: Adobe Illustrator 23.0.0, SVG Export Plug-In . SVG Version: 6.00 Build 0)  -->
<svg version="1.2" baseProfile="tiny" id="レイヤー_1"
	 xmlns="http://www.w3.org/2000/svg" xmlns:xlink="http://www.w3.org/1999/xlink" x="0px" y="0px" viewBox="0 0 448 512"
	 xml:space="preserve">
<path d="M224,32C100.29,32,0,132.29,0,256s100.29,224,224,224s224-100.29,224-224S347.71,32,224,32z M200.34,126.5h47.32
	c6.94,0,12.47,5.81,12.13,12.75l-6.88,137.59c-0.32,6.46-5.66,11.53-12.13,11.53h-33.56c-6.47,0-11.8-5.07-12.13-11.53l-6.88-137.59
	C187.87,132.31,193.4,126.5,200.34,126.5z M224,385.5c-22.35,0-40.47-18.12-40.47-40.47s18.12-40.47,40.47-40.47
	s40.47,18.12,40.47,40.47S246.35,385.5,224,385.5z"/>
</svg>
