<?xml version="1.0" encoding="utf-8"?>
<!-- Generator: Adobe Illustrator 23.0.0, SVG Export Plug-In . SVG Version: 6.00 Build 0)  -->
<svg version="1.2" baseProfile="tiny" id="レイヤー_1"
	 xmlns="http://www.w3.org/2000/svg" xmlns:xlink="http://www.w3.org/1999/xlink" x="0px" y="0px" viewBox="0 0 512 512"
	 xml:space="preserve">
<path d="M504.83,428.31L285.86,49.23C279.22,37.74,267.61,32,256,32s-23.22,5.74-29.86,17.23L7.17,428.31
	C-6.1,451.28,10.49,480,37.03,480h437.94C501.51,480,518.1,451.28,504.83,428.31z M256,192c19.33,0,35,15.67,35,35s-15.67,35-35,35
	s-35-15.67-35-35S236.67,192,256,192z M305,409c0,3.87-3.13,7-7,7h-84c-3.87,0-7-3.13-7-7v-28c0-3.87,3.13-7,7-7h21v-56h-21
	c-3.87,0-7-3.13-7-7v-28c0-3.87,3.13-7,7-7h56c3.87,0,7,3.13,7,7v91h21c3.87,0,7,3.13,7,7V409z"/>
</svg>
