<?xml version="1.0" encoding="utf-8"?>
<!-- Generator: Adobe Illustrator 23.0.0, SVG Export Plug-In . SVG Version: 6.00 Build 0)  -->
<svg version="1.2" baseProfile="tiny" id="レイヤー_1"
	 xmlns="http://www.w3.org/2000/svg" xmlns:xlink="http://www.w3.org/1999/xlink" x="0px" y="0px" viewBox="0 0 352 512"
	 xml:space="preserve">
<path d="M176.02,0C96.2,0,44.5,32.7,3.91,91.03c-7.36,10.58-5.09,25.09,5.18,32.87l43.14,32.71c10.37,7.87,25.13,6.03,33.25-4.15
	c25.05-31.38,43.63-49.45,82.76-49.45c30.76,0,68.82,19.8,68.82,49.63c0,22.55-18.62,34.13-48.99,51.16
	c-35.42,19.86-82.3,44.58-82.3,106.4V320c0,13.26,10.74,24,24,24h72.47c13.26,0,24-10.74,24-24v-5.77
	c0-42.86,125.27-44.64,125.27-160.63C351.5,66.26,260.9,0,176.02,0z M166,373.46c-38.2,0-69.27,31.08-69.27,69.27
	c0,38.2,31.08,69.27,69.27,69.27s69.27-31.08,69.27-69.27S204.2,373.46,166,373.46z"/>
</svg>
