<?xml version="1.0" encoding="utf-8"?>
<!-- Generator: Adobe Illustrator 23.0.0, SVG Export Plug-In . SVG Version: 6.00 Build 0)  -->
<svg version="1.2" baseProfile="tiny" id="レイヤー_1"
	 xmlns="http://www.w3.org/2000/svg" xmlns:xlink="http://www.w3.org/1999/xlink" x="0px" y="0px" viewBox="0 0 512 512"
	 xml:space="preserve">
<path d="M253.5,32c-11.61,0-23.22,5.74-29.86,17.23L4.67,428.31C-8.6,451.28,7.99,480,34.53,480h437.94
	c26.54,0,43.13-28.72,29.86-51.69L283.36,49.23C276.72,37.74,265.11,32,253.5,32L253.5,32z M34.53,448c-0.5,0-1.44,0-2.15-1.24
	c-0.71-1.22-0.26-1.99,0-2.45L251.35,65.24c0.25-0.43,0.71-1.24,2.15-1.24s1.9,0.8,2.15,1.24l218.97,379.08
	c0.26,0.46,0.71,1.22,0,2.45c-0.71,1.24-1.65,1.24-2.15,1.24H34.53z M291,227c0,19.33-15.67,35-35,35s-35-15.67-35-35
	s15.67-35,35-35S291,207.67,291,227z M298,374h-21v-91c0-3.87-3.13-7-7-7h-56c-3.87,0-7,3.13-7,7v28c0,3.87,3.13,7,7,7h21v56h-21
	c-3.87,0-7,3.13-7,7v28c0,3.87,3.13,7,7,7h84c3.87,0,7-3.13,7-7v-28C305,377.13,301.87,374,298,374z"/>
</svg>
