<?xml version="1.0" encoding="utf-8"?>
<!-- Generator: Adobe Illustrator 23.0.0, SVG Export Plug-In . SVG Version: 6.00 Build 0)  -->
<svg version="1.2" baseProfile="tiny" id="レイヤー_1"
	 xmlns="http://www.w3.org/2000/svg" xmlns:xlink="http://www.w3.org/1999/xlink" x="0px" y="0px" viewBox="0 0 448 512"
	 xml:space="preserve">
<path d="M224,32C100.29,32,0,132.29,0,256s100.29,224,224,224s224-100.29,224-224S347.71,32,224,32z M219.18,385.25
	c-19.28,0-34.97-15.69-34.97-34.97c0-19.28,15.69-34.97,34.97-34.97c19.28,0,34.97,15.69,34.97,34.97S238.46,385.25,219.18,385.25z
	 M249.59,285.4v2.91c0,6.69-5.42,12.12-12.12,12.12h-36.59c-6.69,0-12.12-5.42-12.12-12.12v-4.94c0-31.22,23.67-43.7,41.55-53.72
	c15.34-8.6,24.74-14.45,24.74-25.83c0-15.06-19.21-25.06-34.74-25.06c-19.75,0-29.14,9.12-41.78,24.97
	c-4.1,5.14-11.55,6.07-16.79,2.09l-21.78-16.51c-5.19-3.93-6.33-11.26-2.61-16.6c20.49-29.45,46.59-45.96,86.89-45.96
	c42.85,0,88.6,33.45,88.6,77.55C312.84,262.86,249.59,263.76,249.59,285.4z"/>
</svg>
