<?xml version="1.0" encoding="utf-8"?>
<!-- Generator: Adobe Illustrator 23.0.0, SVG Export Plug-In . SVG Version: 6.00 Build 0)  -->
<svg version="1.2" baseProfile="tiny" id="レイヤー_1"
	 xmlns="http://www.w3.org/2000/svg" xmlns:xlink="http://www.w3.org/1999/xlink" x="0px" y="0px" viewBox="0 0 448 512"
	 xml:space="preserve">
<path d="M384,64H64c-17.64,0-32,14.36-32,32v320c0,17.64,14.36,32,32,32h320c17.64,0,32-14.36,32-32V96C416,78.36,401.64,64,384,64
	 M384,32c35.35,0,64,28.65,64,64v320c0,35.35-28.65,64-64,64H64c-35.35,0-64-28.65-64-64V96c0-35.35,28.65-64,64-64H384L384,32z
	 M188.22,139.25l6.88,137.59c0.32,6.46,5.66,11.53,12.13,11.53h33.56c6.47,0,11.8-5.07,12.13-11.53l6.88-137.59
	c0.35-6.93-5.18-12.75-12.13-12.75h-47.32C193.4,126.5,187.87,132.31,188.22,139.25z M264.47,345.03
	c0,22.35-18.12,40.47-40.47,40.47s-40.47-18.12-40.47-40.47s18.12-40.47,40.47-40.47S264.47,322.68,264.47,345.03z"/>
</svg>
