<?xml version="1.0" encoding="utf-8"?>
<!-- Generator: Adobe Illustrator 23.0.0, SVG Export Plug-In . SVG Version: 6.00 Build 0)  -->
<svg version="1.2" baseProfile="tiny" id="レイヤー_1"
	 xmlns="http://www.w3.org/2000/svg" xmlns:xlink="http://www.w3.org/1999/xlink" x="0px" y="0px" viewBox="0 0 448 512"
	 xml:space="preserve">
<path d="M384,32H64C28.65,32,0,60.65,0,96v320c0,35.35,28.65,64,64,64h320c35.35,0,64-28.65,64-64V96C448,60.65,419.35,32,384,32z
	 M224,128c22.09,0,40,17.91,40,40c0,22.09-17.91,40-40,40s-40-17.91-40-40C184,145.91,201.91,128,224,128z M280,376
	c0,4.42-3.58,8-8,8h-96c-4.42,0-8-3.58-8-8v-32c0-4.42,3.58-8,8-8h24v-64h-24c-4.42,0-8-3.58-8-8v-32c0-4.42,3.58-8,8-8h64
	c4.42,0,8,3.58,8,8v104h24c4.42,0,8,3.58,8,8V376z"/>
</svg>
