<?xml version="1.0" encoding="utf-8"?>
<!-- Generator: Adobe Illustrator 23.0.0, SVG Export Plug-In . SVG Version: 6.00 Build 0)  -->
<svg version="1.2" baseProfile="tiny" id="レイヤー_1"
	 xmlns="http://www.w3.org/2000/svg" xmlns:xlink="http://www.w3.org/1999/xlink" x="0px" y="0px" viewBox="0 0 448 512"
	 xml:space="preserve">
<path d="M384,32H64C28.65,32,0,60.65,0,96v320c0,35.35,28.65,64,64,64h320c35.35,0,64-28.65,64-64V96C448,60.65,419.35,32,384,32z
	 M200.34,126.5h47.32c6.94,0,12.47,5.81,12.13,12.75l-6.88,137.59c-0.32,6.46-5.66,11.53-12.13,11.53h-33.56
	c-6.47,0-11.8-5.07-12.13-11.53l-6.88-137.59C187.87,132.31,193.4,126.5,200.34,126.5z M224,385.5c-22.35,0-40.47-18.12-40.47-40.47
	s18.12-40.47,40.47-40.47s40.47,18.12,40.47,40.47S246.35,385.5,224,385.5z"/>
</svg>
