<?xml version="1.0" encoding="utf-8"?>
<!-- Generator: Adobe Illustrator 23.0.0, SVG Export Plug-In . SVG Version: 6.00 Build 0)  -->
<svg version="1.2" baseProfile="tiny" id="レイヤー_1"
	 xmlns="http://www.w3.org/2000/svg" xmlns:xlink="http://www.w3.org/1999/xlink" x="0px" y="0px" viewBox="0 0 224 512"
	 xml:space="preserve">
<path d="M192,80c0,44.18-35.82,80-80,80s-80-35.82-80-80S67.82,0,112,0S192,35.82,192,80z M208,416h-48V208c0-8.84-7.16-16-16-16H16
	c-8.84,0-16,7.16-16,16v64c0,8.84,7.16,16,16,16h48v128H16c-8.84,0-16,7.16-16,16v64c0,8.84,7.16,16,16,16h192c8.84,0,16-7.16,16-16
	v-64C224,423.16,216.84,416,208,416z"/>
</svg>
