<?xml version="1.0" encoding="utf-8"?>
<!-- Generator: Adobe Illustrator 23.0.0, SVG Export Plug-In . SVG Version: 6.00 Build 0)  -->
<svg version="1.2" baseProfile="tiny" id="レイヤー_1"
	 xmlns="http://www.w3.org/2000/svg" xmlns:xlink="http://www.w3.org/1999/xlink" x="0px" y="0px" viewBox="0 0 512 512"
	 xml:space="preserve">
<path d="M504.83,428.31L285.86,49.23C279.22,37.74,267.61,32,256,32s-23.22,5.74-29.86,17.23L7.17,428.31
	C-6.1,451.28,10.49,480,37.03,480h437.94C501.51,480,518.1,451.28,504.83,428.31z M235.54,192h40.92c6.01,0,10.79,5.03,10.49,11.02
	l-5.95,119c-0.28,5.59-4.89,9.98-10.49,9.98h-29.02c-5.59,0-10.21-4.39-10.49-9.98l-5.95-119C224.75,197.03,229.53,192,235.54,192z
	 M256,416c-19.33,0-35-15.67-35-35s15.67-35,35-35s35,15.67,35,35S275.33,416,256,416z"/>
</svg>
