<?xml version="1.0" encoding="utf-8"?>
<!-- Generator: Adobe Illustrator 23.0.0, SVG Export Plug-In . SVG Version: 6.00 Build 0)  -->
<svg version="1.2" baseProfile="tiny" id="レイヤー_1"
	 xmlns="http://www.w3.org/2000/svg" xmlns:xlink="http://www.w3.org/1999/xlink" x="0px" y="0px" viewBox="0 0 512 512"
	 xml:space="preserve">
<path d="M504.83,428.31L285.86,49.23C279.22,37.74,267.61,32,256,32s-23.22,5.74-29.86,17.23L7.17,428.31
	C-6.1,451.28,10.49,480,37.03,480h437.94C501.51,480,518.1,451.28,504.83,428.31z M255.84,416c-16.71,0-30.31-13.6-30.31-30.31
	c0-16.71,13.6-30.31,30.31-30.31c16.71,0,30.31,13.59,30.31,30.31S272.55,416,255.84,416z M282.2,329.47V332
	c0,5.8-4.7,10.5-10.5,10.5h-31.71c-5.8,0-10.5-4.7-10.5-10.5v-4.28c0-27.05,20.51-37.86,36.01-46.55
	c13.29-7.45,21.43-12.52,21.43-22.38c0-13.05-16.65-21.71-30.11-21.71c-17.12,0-25.25,7.9-36.21,21.63
	c-3.55,4.45-10.01,5.26-14.55,1.81l-18.87-14.31c-4.49-3.41-5.49-9.75-2.27-14.38c17.76-25.52,40.38-39.82,75.3-39.82
	c37.14,0,76.77,28.99,76.77,67.2C337,309.94,282.2,310.72,282.2,329.47z"/>
</svg>
