<?xml version="1.0" encoding="utf-8"?>
<!-- Generator: Adobe Illustrator 23.0.0, SVG Export Plug-In . SVG Version: 6.00 Build 0)  -->
<svg version="1.2" baseProfile="tiny" id="レイヤー_1"
	 xmlns="http://www.w3.org/2000/svg" xmlns:xlink="http://www.w3.org/1999/xlink" x="0px" y="0px" viewBox="0 0 448 512"
	 xml:space="preserve">
<path d="M384,64H64c-17.64,0-32,14.36-32,32v320c0,17.64,14.36,32,32,32h320c17.64,0,32-14.36,32-32V96C416,78.36,401.64,64,384,64
	 M384,32c35.35,0,64,28.65,64,64v320c0,35.35-28.65,64-64,64H64c-35.35,0-64-28.65-64-64V96c0-35.35,28.65-64,64-64H384L384,32z"/>
<path d="M160,368c0,26.51-21.49,48-48,48s-48-21.49-48-48s21.49-48,48-48S160,341.49,160,368z M290.27,189.73
	C229.83,129.29,149.48,96,64,96v64c68.38,0,132.67,26.63,181.02,74.98C293.37,283.33,320,347.62,320,416h64
	C384,330.52,350.71,250.17,290.27,189.73z M64,204v64c81.61,0,148,66.39,148,148h64C276,299.1,180.9,204,64,204z"/>
</svg>
