<?xml version="1.0" encoding="utf-8"?>
<!-- Generator: Adobe Illustrator 23.0.0, SVG Export Plug-In . SVG Version: 6.00 Build 0)  -->
<svg version="1.2" baseProfile="tiny" id="レイヤー_1"
	 xmlns="http://www.w3.org/2000/svg" xmlns:xlink="http://www.w3.org/1999/xlink" x="0px" y="0px" viewBox="0 0 448 512"
	 xml:space="preserve">
<path d="M384,32H64C28.65,32,0,60.65,0,96v320c0,35.35,28.65,64,64,64h320c35.35,0,64-28.65,64-64V96C448,60.65,419.35,32,384,32z
	 M112,416c-26.51,0-48-21.49-48-48c0-26.51,21.49-48,48-48s48,21.49,48,48C160,394.51,138.51,416,112,416z M212,416
	c0-81.61-66.39-148-148-148v-64c116.9,0,212,95.1,212,212H212z M320,416c0-68.38-26.63-132.67-74.98-181.02
	C196.67,186.63,132.38,160,64,160V96c85.48,0,165.83,33.29,226.27,93.73C350.71,250.17,384,330.52,384,416H320z"/>
</svg>
