<?xml version="1.0" encoding="utf-8"?>
<!-- Generator: Adobe Illustrator 23.0.0, SVG Export Plug-In . SVG Version: 6.00 Build 0)  -->
<svg version="1.2" baseProfile="tiny" id="レイヤー_1"
	 xmlns="http://www.w3.org/2000/svg" xmlns:xlink="http://www.w3.org/1999/xlink" x="0px" y="0px" viewBox="0 0 448 512"
	 xml:space="preserve">
<path d="M448,256c0,123.71-100.29,224-224,224S0,379.71,0,256S100.29,32,224,32S448,132.29,448,256z M160,288
	c-17.67,0-32,14.33-32,32s14.33,32,32,32s32-14.33,32-32S177.67,288,160,288z M128,160v32c88.22,0,160,71.78,160,160h32
	C320,246.13,233.87,160,128,160z M128,224v32c52.93,0,96,43.07,96,96h32C256,281.42,198.58,224,128,224z"/>
</svg>
