<?xml version="1.0" encoding="utf-8"?>
<!-- Generator: Adobe Illustrator 23.0.0, SVG Export Plug-In . SVG Version: 6.00 Build 0)  -->
<svg version="1.2" baseProfile="tiny" id="レイヤー_1"
	 xmlns="http://www.w3.org/2000/svg" xmlns:xlink="http://www.w3.org/1999/xlink" x="0px" y="0px" viewBox="0 0 448 512"
	 xml:space="preserve">
<path d="M448,256c0,123.71-100.29,224-224,224S0,379.71,0,256S100.29,32,224,32S448,132.29,448,256z M224,64
	C117.96,64,32,149.96,32,256s85.96,192,192,192s192-85.96,192-192S330.04,64,224,64z"/>
<g>
	<circle cx="160" cy="320" r="32"/>
	<path d="M320,352h-32c0-88.22-71.78-160-160-160v-32C233.87,160,320,246.13,320,352z"/>
	<path d="M256,352h-32c0-52.93-43.07-96-96-96v-32C198.58,224,256,281.42,256,352z"/>
</g>
</svg>
