<?xml version="1.0" encoding="utf-8"?>
<!-- Generator: Adobe Illustrator 23.0.0, SVG Export Plug-In . SVG Version: 6.00 Build 0)  -->
<svg version="1.2" baseProfile="tiny" id="レイヤー_1"
	 xmlns="http://www.w3.org/2000/svg" xmlns:xlink="http://www.w3.org/1999/xlink" x="0px" y="0px" viewBox="0 0 448 512"
	 xml:space="preserve">
<path d="M64,448c-17.64,0-32-14.36-32-32V96c0-17.64,14.36-32,32-32h320c17.64,0,32,14.36,32,32v320c0,17.64-14.36,32-32,32H64
	 M64,480h320c35.35,0,64-28.65,64-64V96c0-35.35-28.65-64-64-64H64C28.65,32,0,60.65,0,96v320C0,451.35,28.65,480,64,480L64,480z
	 M288,304l64-48l-64-48l0,32H96v32h192L288,304z"/>
</svg>
