<?xml version="1.0" encoding="utf-8"?>
<!-- Generator: Adobe Illustrator 23.0.0, SVG Export Plug-In . SVG Version: 6.00 Build 0)  -->
<svg version="1.2" baseProfile="tiny" id="レイヤー_1"
	 xmlns="http://www.w3.org/2000/svg" xmlns:xlink="http://www.w3.org/1999/xlink" x="0px" y="0px" viewBox="0 0 448 512"
	 xml:space="preserve">
<path d="M32,96c0-17.64,14.36-32,32-32h320c17.64,0,32,14.36,32,32v320c0,17.64-14.36,32-32,32H64c-17.64,0-32-14.36-32-32V96 M0,96
	v320c0,35.35,28.65,64,64,64h320c35.35,0,64-28.65,64-64V96c0-35.35-28.65-64-64-64H64C28.65,32,0,60.65,0,96L0,96z M176,320l48,64
	l48-64l-32,0V128h-32v192L176,320z"/>
</svg>
