<?xml version="1.0" standalone="no"?>
<!DOCTYPE svg PUBLIC "-//W3C//DTD SVG 20010904//EN"
 "http://www.w3.org/TR/2001/REC-SVG-20010904/DTD/svg10.dtd">
<svg version="1.0" xmlns="http://www.w3.org/2000/svg"
 width="512.000000pt" height="512.000000pt" viewBox="0 0 512.000000 512.000000"
 preserveAspectRatio="xMidYMid meet">
<metadata>
Created by potrace 1.11, written by Peter Selinger 2001-2013
</metadata>
<g transform="translate(0.000000,512.000000) scale(0.100000,-0.100000)"
fill="#000000" stroke="none">
<path d="M0 2560 l0 -2560 2560 0 2560 0 0 2560 0 2560 -2560 0 -2560 0 0
-2560z m4960 0 l0 -2400 -2400 0 -2400 0 0 2400 0 2400 2400 0 2400 0 0 -2400z"/>
<path d="M393 4809 c-38 -11 -78 -59 -90 -109 -11 -42 2 -132 23 -165 51 -78
206 -68 250 16 23 45 19 56 -23 55 -30 -1 -42 -7 -55 -28 -21 -33 -66 -38 -91
-10 -42 47 -25 165 26 177 30 8 67 -10 67 -30 0 -9 10 -15 23 -16 12 0 32 -2
45 -3 24 -3 27 7 12 51 -19 54 -112 85 -187 62z"/>
<path d="M703 4809 c-62 -18 -97 -114 -55 -152 20 -18 84 -43 131 -50 38 -6
51 -15 51 -33 0 -36 -93 -37 -122 -1 -14 19 -32 23 -78 18 -20 -2 -9 -40 20
-70 44 -44 142 -54 212 -21 48 23 68 99 36 138 -18 21 -57 37 -121 51 -59 13
-83 35 -56 52 31 19 99 7 99 -17 0 -10 13 -14 46 -14 42 0 45 1 38 23 -7 26
-32 55 -55 68 -25 13 -110 18 -146 8z"/>
<path d="M1027 4809 c-73 -20 -104 -116 -52 -157 14 -11 57 -28 96 -37 90 -22
108 -56 36 -69 -36 -6 -77 9 -77 28 0 17 -23 23 -62 18 -33 -5 -35 -16 -8 -59
46 -75 225 -68 264 10 16 34 12 74 -11 99 -15 17 -77 40 -141 53 -59 12 -52
54 10 55 36 0 58 -10 58 -26 0 -10 13 -14 45 -14 25 0 45 2 45 4 0 23 -27 66
-52 80 -34 21 -107 28 -151 15z"/>
<path d="M595 2555 l0 -1295 247 0 248 0 0 118 1 117 22 -30 c131 -180 285
-252 538 -252 63 -1 143 5 179 13 252 52 433 221 554 517 14 34 46 151 60 218
20 95 27 335 13 459 -36 325 -206 603 -441 719 -73 36 -109 48 -211 69 -16 4
-91 6 -165 6 -120 -1 -144 -4 -214 -28 -113 -39 -220 -115 -294 -210 -12 -16
-25 -26 -29 -23 -3 4 -6 207 -6 452 l1 445 -252 0 -251 0 0 -1295z m1035 211
c52 -12 130 -58 168 -100 93 -101 135 -237 136 -441 1 -165 -6 -221 -37 -308
-80 -219 -238 -321 -444 -286 -85 14 -95 18 -151 51 -103 62 -186 206 -210
368 -22 147 4 398 51 498 28 60 32 65 90 124 49 50 110 83 182 98 41 9 171 7
215 -4z"/>
<path d="M3350 3214 c-208 -23 -351 -84 -465 -198 -102 -103 -164 -238 -181
-400 -6 -54 -5 -56 17 -57 130 -5 452 0 458 7 4 5 15 34 24 64 42 138 144 193
347 186 190 -7 272 -58 283 -178 13 -133 -71 -182 -368 -218 -49 -6 -110 -13
-135 -16 -85 -10 -226 -43 -300 -68 -221 -78 -349 -227 -384 -446 -45 -282 61
-513 284 -622 109 -52 164 -63 325 -62 130 0 146 3 228 31 106 38 210 101 300
183 51 47 67 57 68 43 2 -49 11 -103 26 -150 l16 -53 273 0 274 0 0 40 c0 22
-4 40 -8 40 -20 0 -73 66 -83 104 -8 28 -13 232 -14 671 -3 688 -3 684 -63
803 -70 139 -237 234 -507 288 -93 18 -287 22 -415 8z m484 -1159 c-3 -190
-31 -283 -107 -359 -107 -107 -331 -159 -454 -106 -89 38 -133 108 -133 213 0
158 101 245 330 282 160 26 332 74 346 96 15 25 20 -11 18 -126z"/>
<path d="M4390 709 c0 -30 4 -39 18 -40 9 0 27 -2 39 -3 17 -2 22 4 25 31 5
43 1 48 -44 49 -38 1 -38 1 -38 -37z"/>
<path d="M4603 625 c-71 -30 -90 -120 -34 -162 9 -7 41 -17 70 -24 69 -14 101
-29 101 -45 0 -20 -19 -27 -64 -26 -28 1 -46 8 -58 22 -22 27 -88 28 -88 1 0
-52 77 -95 164 -90 78 5 126 45 126 107 0 46 -33 73 -122 97 -59 17 -73 24
-73 40 0 16 8 21 42 23 34 2 45 -1 55 -17 10 -16 23 -21 55 -21 l43 0 -13 32
c-7 17 -24 40 -38 50 -32 24 -122 31 -166 13z"/>
<path d="M4390 444 c0 -177 -1 -186 -20 -191 -15 -4 -20 -14 -20 -39 0 -31 3
-34 29 -34 51 0 79 16 86 50 5 24 10 323 6 388 -1 7 -16 12 -41 12 l-40 0 0
-186z"/>
</g>
</svg>
