<?xml version="1.0" encoding="utf-8"?>
<!-- Generator: Adobe Illustrator 22.1.0, SVG Export Plug-In . SVG Version: 6.00 Build 0)  -->
<svg version="1.2" baseProfile="tiny" id="レイヤー_1"
	 xmlns="http://www.w3.org/2000/svg" xmlns:xlink="http://www.w3.org/1999/xlink" x="0px" y="0px" viewBox="0 0 448 512"
	 xml:space="preserve">
<g>
	<polygon points="85.41,212.64 224,351.23 362.59,212.64 351.28,201.33 224,328.61 96.72,201.33 	"/>
	<path d="M448,416V96c0-35.35-28.65-64-64-64H64C28.65,32,0,60.65,0,96v320c0,35.35,28.65,64,64,64h320
		C419.35,480,448,451.35,448,416L448,416z M16,412V100c0-28.72,23.28-52,52-52h312c28.72,0,52,23.28,52,52v312
		c0,28.72-23.28,52-52,52H68C39.28,464,16,440.72,16,412z"/>
</g>
</svg>
