<?xml version="1.0" encoding="utf-8"?>
<!-- Generator: Adobe Illustrator 22.1.0, SVG Export Plug-In . SVG Version: 6.00 Build 0)  -->
<svg version="1.2" baseProfile="tiny" id="レイヤー_1"
	 xmlns="http://www.w3.org/2000/svg" xmlns:xlink="http://www.w3.org/1999/xlink" x="0px" y="0px" viewBox="0 0 448 512"
	 xml:space="preserve">
<polygon points="266.64,117.41 128.05,256 266.64,394.59 277.95,383.28 150.67,256 277.95,128.72 "/>
<path d="M384,32H64C28.65,32,0,60.65,0,96v320c0,35.35,28.65,64,64,64h320c35.35,0,64-28.65,64-64V96C448,60.65,419.35,32,384,32
	L384,32z M380,464H68c-28.72,0-52-23.28-52-52V100c0-28.72,23.28-52,52-52h312c28.72,0,52,23.28,52,52v312
	C432,440.72,408.72,464,380,464z"/>
</svg>
