<?xml version="1.0" encoding="utf-8"?>
<!-- Generator: Adobe Illustrator 22.1.0, SVG Export Plug-In . SVG Version: 6.00 Build 0)  -->
<svg version="1.2" baseProfile="tiny" id="レイヤー_1"
	 xmlns="http://www.w3.org/2000/svg" xmlns:xlink="http://www.w3.org/1999/xlink" x="0px" y="0px" viewBox="0 0 448 512"
	 xml:space="preserve">
<g>
	<polygon points="362.59,298.36 224,159.77 85.41,298.36 96.72,309.67 224,182.39 351.28,309.67 	"/>
	<path d="M0,96v320c0,35.35,28.65,64,64,64h320c35.35,0,64-28.65,64-64V96c0-35.35-28.65-64-64-64H64C28.65,32,0,60.65,0,96L0,96z
		 M432,100v312c0,28.72-23.28,52-52,52H68c-28.72,0-52-23.28-52-52V100c0-28.72,23.28-52,52-52h312C408.72,48,432,71.28,432,100z"/>
</g>
</svg>
