<?xml version="1.0" encoding="utf-8"?>
<!-- Generator: Adobe Illustrator 23.0.0, SVG Export Plug-In . SVG Version: 6.00 Build 0)  -->
<svg version="1.2" baseProfile="tiny" id="レイヤー_1"
	 xmlns="http://www.w3.org/2000/svg" xmlns:xlink="http://www.w3.org/1999/xlink" x="0px" y="0px" viewBox="0 0 512 512"
	 xml:space="preserve">
<path d="M440,352V248H264v-88h88V32H160v128h88v88H72v104H0v128h160V352H88v-88h160v88h-72v128h160V352h-72v-88h160v88h-72v128h160
	V352H440z M176,48h160v96H176V48z M144,368v96H16v-96H144z M320,464H192v-96h128V464z M496,464H368v-96h128V464z"/>
</svg>
