<?xml version="1.0" encoding="utf-8"?>
<!-- Generator: Adobe Illustrator 23.0.0, SVG Export Plug-In . SVG Version: 6.00 Build 0)  -->
<svg version="1.2" baseProfile="tiny" id="レイヤー_1"
	 xmlns="http://www.w3.org/2000/svg" xmlns:xlink="http://www.w3.org/1999/xlink" x="0px" y="0px" viewBox="0 0 512 512"
	 xml:space="preserve">
<path d="M448,352V240H272v-80h80V32H160v128h80v80H64v112H0v128h160V352H96v-80h144v80h-64v128h160V352h-64v-80h144v80h-64v128h160
	V352H448z M192,64h128v64H192V64z M128,448H32v-64h96V448z M304,448h-96v-64h96V448z M480,448h-96v-64h96V448z"/>
</svg>
