<?xml version="1.0" encoding="utf-8"?>
<!-- Generator: Adobe Illustrator 22.1.0, SVG Export Plug-In . SVG Version: 6.00 Build 0)  -->
<svg version="1.2" baseProfile="tiny" id="レイヤー_1"
	 xmlns="http://www.w3.org/2000/svg" xmlns:xlink="http://www.w3.org/1999/xlink" x="0px" y="0px" viewBox="0 0 512 512"
	 xml:space="preserve">
<path d="M377.96,344.02h-12.6C396.91,307.55,416,260.01,416,208C416,93.12,322.88,0,208,0S0,93.12,0,208s93.12,208,208,208
	c52.01,0,99.55-19.09,136.02-50.64v12.6L478.06,512l9.9-1.41l22.63-22.63l1.41-9.9L377.96,344.02z M208,384.5
	c-97.48,0-176.5-79.02-176.5-176.5S110.52,31.5,208,31.5S384.5,110.52,384.5,208S305.48,384.5,208,384.5z"/>
<rect x="96" y="192" width="224" height="32"/>
</svg>
