<?xml version="1.0" encoding="utf-8"?>
<!-- Generator: Adobe Illustrator 23.0.0, SVG Export Plug-In . SVG Version: 6.00 Build 0)  -->
<svg version="1.2" baseProfile="tiny" id="レイヤー_1"
	 xmlns="http://www.w3.org/2000/svg" xmlns:xlink="http://www.w3.org/1999/xlink" x="0px" y="0px" viewBox="0 0 512 512"
	 xml:space="preserve">
<path d="M352,352c79.4,0,144,57.42,144,128v8c0,4.42-3.58,8-8,8H24c-4.42,0-8-3.58-8-8v-8c0-70.58,64.6-128,144-128h23.6
	c23.08,10.62,47.76,16,73.4,16s50.32-5.38,73.4-16H352 M352,336h-25.19c-21.1,10.25-44.78,16-69.81,16s-48.72-5.75-69.81-16H160
	C71.63,336,0,400.47,0,480v16c0,8.84,7.16,16,16,16h480c8.84,0,16-7.16,16-16v-16C512,400.47,440.37,336,352,336L352,336z M256,16
	c38.46,0,74.63,14.98,101.82,42.18C385.02,85.37,400,121.54,400,160s-14.98,74.63-42.18,101.82C330.63,289.02,294.46,304,256,304
	s-74.63-14.98-101.82-42.18C126.98,234.63,112,198.46,112,160s14.98-74.63,42.18-101.82C181.37,30.98,217.54,16,256,16 M256,0
	C167.63,0,96,71.63,96,160s71.63,160,160,160s160-71.63,160-160S344.37,0,256,0L256,0z"/>
</svg>
