<?xml version="1.0" encoding="utf-8"?>
<!-- Generator: Adobe Illustrator 22.1.0, SVG Export Plug-In . SVG Version: 6.00 Build 0)  -->
<svg version="1.2" baseProfile="tiny" id="レイヤー_1"
	 xmlns="http://www.w3.org/2000/svg" xmlns:xlink="http://www.w3.org/1999/xlink" x="0px" y="0px" viewBox="0 0 512 512"
	 xml:space="preserve">
<path d="M393.21,336.64l-17.77-5.23C400.92,296.89,416,254.21,416,208C416,93.12,322.88,0,208,0S0,93.12,0,208s93.12,208,208,208
	c46.21,0,88.89-15.08,123.41-40.56l5.23,17.77L455.43,512h16.97l39.6-39.6v-16.97L393.21,336.64z M208,352
	c-79.53,0-144-64.47-144-144S128.47,64,208,64s144,64.47,144,144S287.53,352,208,352z"/>
<rect x="96" y="184" width="224" height="48"/>
</svg>
