<?xml version="1.0" encoding="utf-8"?>
<!-- Generator: Adobe Illustrator 22.1.0, SVG Export Plug-In . SVG Version: 6.00 Build 0)  -->
<svg version="1.2" baseProfile="tiny" id="レイヤー_1"
	 xmlns="http://www.w3.org/2000/svg" xmlns:xlink="http://www.w3.org/1999/xlink" x="0px" y="0px" viewBox="0 0 512 512"
	 xml:space="preserve">
<path d="M352,368c68.99,0,125.41,48,127.91,107.84c0.1,2.27-1.73,4.16-4,4.16H36.09c-2.27,0-4.1-1.89-4-4.16
	C34.59,416,91.01,368,160,368h20.17c24.25,10.62,50.06,16,76.83,16s52.58-5.38,76.83-16H352 M352,336h-25.19
	c-21.1,10.25-44.78,16-69.81,16s-48.72-5.75-69.81-16H160C71.63,336,0,400.47,0,480v16c0,8.84,7.16,16,16,16h480
	c8.84,0,16-7.16,16-16v-16C512,400.47,440.37,336,352,336L352,336z M256,32c34.19,0,66.33,13.31,90.51,37.49
	C370.69,93.67,384,125.81,384,160s-13.31,66.33-37.49,90.51C322.33,274.69,290.19,288,256,288s-66.33-13.31-90.51-37.49
	C141.31,226.33,128,194.19,128,160s13.31-66.33,37.49-90.51C189.67,45.31,221.81,32,256,32 M256,0C167.63,0,96,71.63,96,160
	s71.63,160,160,160s160-71.63,160-160S344.37,0,256,0L256,0z"/>
</svg>
