<?xml version="1.0" encoding="utf-8"?>
<!-- Generator: Adobe Illustrator 22.1.0, SVG Export Plug-In . SVG Version: 6.00 Build 0)  -->
<svg version="1.2" baseProfile="tiny" id="レイヤー_1"
	 xmlns="http://www.w3.org/2000/svg" xmlns:xlink="http://www.w3.org/1999/xlink" x="0px" y="0px" viewBox="0 0 512 512"
	 xml:space="preserve">
<path d="M179.8,82.13c16.92-33.85,38.23-56.06,60.2-63.43v103.73c-25.59-0.76-50.45-3.48-73.81-7.96
	C170.21,103.04,174.76,92.21,179.8,82.13z M345.68,114.14c-4-11.32-8.5-22.03-13.49-32.01C315.27,48.29,293.96,26.08,272,18.71
	v103.66C297.6,121.51,322.41,118.71,345.68,114.14z M144.26,240H240v-85.55c-28.73-0.82-56.71-3.97-83.01-9.22
	C149.66,174.45,145.31,206.55,144.26,240z M157.08,367.12c26.22-5.35,54.17-8.59,82.92-9.51V272h-95.74
	C145.32,305.59,149.69,337.81,157.08,367.12z M462.18,104.97c-21.6,13.29-47.48,24.18-76.2,32.36
	c7.99,31.81,12.7,66.59,13.77,102.68h111.74c-3.11-50.43-20.81-96.9-48.95-135.26L462.18,104.97z M399.75,272
	c-1.07,35.9-5.73,70.51-13.65,102.18c28.52,7.97,54.32,18.6,75.93,31.57l1.12,0.67c27.78-38.19,45.25-84.36,48.34-134.42H399.75z
	 M240,493.29V389.63c-25.6,0.86-50.41,3.66-73.69,8.23c4,11.32,8.5,22.03,13.49,32.01C196.72,463.71,218.03,485.92,240,493.29z
	 M360.81,67.82c6.04,12.08,11.42,25.1,16.13,38.87c24.33-6.91,46.3-15.92,64.85-26.81c-33.72-35.56-77.54-61.44-126.87-73.06
	C332.1,20.99,347.66,41.53,360.81,67.82z M151.18,444.18c-6.04-12.08-11.42-25.1-16.13-38.87c-24.32,6.91-46.29,15.92-64.84,26.81
	c33.72,35.56,77.53,61.44,126.86,73.06C179.88,491.01,164.32,470.47,151.18,444.18z M345.8,397.52c-23.36-4.48-48.21-7.19-73.8-7.95
	v103.73c21.96-7.37,43.27-29.58,60.19-63.43C337.23,419.79,341.78,408.96,345.8,397.52z M112.25,272H0.51
	c3.11,50.43,20.81,96.9,48.95,135.26l0.36-0.22c21.6-13.29,47.48-24.18,76.19-32.35C118.02,342.87,113.32,308.09,112.25,272z
	 M377.11,404.83c-4.75,13.95-10.19,27.13-16.3,39.35c-13.15,26.29-28.71,46.83-45.89,61c49.67-11.7,93.75-37.86,127.56-73.8
	C423.75,420.57,401.6,411.64,377.11,404.83z M112.25,240c1.07-35.9,5.73-70.51,13.64-102.18c-28.52-7.97-54.32-18.6-75.92-31.57
	l-1.12-0.67C21.07,143.77,3.6,189.93,0.51,240H112.25z M134.88,107.17c4.75-13.95,10.18-27.13,16.29-39.35
	c13.15-26.29,28.71-46.83,45.89-61c-49.66,11.7-93.73,37.86-127.54,73.79C88.25,91.43,110.4,100.36,134.88,107.17z M367.74,272H272
	v85.55c28.73,0.82,56.71,3.97,83.01,9.22C362.34,337.55,366.69,305.45,367.74,272z M354.92,144.88
	c-26.22,5.35-54.16,8.59-82.92,9.51V240h95.74C366.68,206.42,362.3,174.19,354.92,144.88z"/>
</svg>
