<?xml version="1.0" encoding="utf-8"?>
<!-- Generator: Adobe Illustrator 23.0.0, SVG Export Plug-In . SVG Version: 6.00 Build 0)  -->
<svg version="1.2" baseProfile="tiny" id="レイヤー_1"
	 xmlns="http://www.w3.org/2000/svg" xmlns:xlink="http://www.w3.org/1999/xlink" x="0px" y="0px" viewBox="0 0 512 512"
	 xml:space="preserve">
<path d="M512,82H0v352h512V82z M480,315.22l-60.93-43.76L480,227.7V315.22z M32,114h448v74.31L288,326.19
	c-16.75,12.03-39.25,12.02-56,0L32,182.56V114z M32,221.96l68.93,49.5L32,320.96V221.96z M480,402H32v-41.64l96.36-69.2l84.98,61.03
	c13.96,10.02,30.31,15.03,46.66,15.03c16.35,0,32.71-5.01,46.66-15.03l84.98-61.03L480,354.61V402z"/>
</svg>
