<?xml version="1.0" encoding="utf-8"?>
<!-- Generator: Adobe Illustrator 23.0.0, SVG Export Plug-In . SVG Version: 6.00 Build 0)  -->
<svg version="1.2" baseProfile="tiny" id="レイヤー_1"
	 xmlns="http://www.w3.org/2000/svg" xmlns:xlink="http://www.w3.org/1999/xlink" x="0px" y="0px" viewBox="0 0 512 512"
	 xml:space="preserve">
<path d="M290.45,16l10.05,60.3l1.59,9.53l9.17,3.03c22.9,7.57,43.7,19.59,61.81,35.74l7.21,6.43l9.05-3.39l57.3-21.47l34.45,59.66
	l-47.2,38.85l-7.45,6.13l1.95,9.45c2.41,11.68,3.63,23.71,3.63,35.73s-1.22,24.05-3.63,35.73l-1.95,9.45l7.45,6.13l47.2,38.85
	l-34.45,59.66l-57.3-21.47l-9.05-3.39l-7.21,6.43c-18.11,16.15-38.9,28.17-61.81,35.74l-9.17,3.03l-1.59,9.53L290.45,496h-68.89
	l-10.05-60.3l-1.59-9.53l-9.17-3.03c-22.9-7.57-43.7-19.59-61.81-35.74l-7.21-6.43l-9.05,3.39l-57.3,21.47l-34.45-59.66l47.2-38.85
	l7.45-6.13l-1.95-9.45C81.22,280.05,80,268.03,80,256s1.22-24.05,3.63-35.73l1.95-9.45l-7.45-6.13l-47.2-38.85l34.45-59.66
	l57.3,21.47l9.05,3.39l7.21-6.43c18.11-16.15,38.9-28.17,61.81-35.74l9.17-3.03l1.59-9.53L221.55,16H290.45 M304,0h-96l-12.28,73.67
	c-25.19,8.32-48.07,21.72-67.44,38.99L58.3,86.43l-48,83.14l57.66,47.47C65.37,229.62,64,242.65,64,256s1.37,26.38,3.96,38.96
	L10.3,342.43l48,83.14l69.99-26.22c19.36,17.26,42.24,30.66,67.44,38.99L208,512h96l12.28-73.67c25.19-8.32,48.07-21.72,67.44-38.99
	l69.99,26.22l48-83.14l-57.66-47.47c2.59-12.58,3.96-25.61,3.96-38.96s-1.37-26.38-3.96-38.96l57.66-47.47l-48-83.14l-69.99,26.22
	c-19.36-17.26-42.24-30.66-67.44-38.99L304,0L304,0z M256,192c35.29,0,64,28.71,64,64s-28.71,64-64,64s-64-28.71-64-64
	S220.71,192,256,192 M256,176c-44.18,0-80,35.82-80,80s35.82,80,80,80s80-35.82,80-80S300.18,176,256,176L256,176z"/>
</svg>
