<?xml version="1.0" encoding="utf-8"?>
<!-- Generator: Adobe Illustrator 23.0.0, SVG Export Plug-In . SVG Version: 6.00 Build 0)  -->
<svg version="1.2" baseProfile="tiny" id="レイヤー_1"
	 xmlns="http://www.w3.org/2000/svg" xmlns:xlink="http://www.w3.org/1999/xlink" x="0px" y="0px" viewBox="0 0 512 512"
	 xml:space="preserve">
<path d="M444.04,294.96l57.66,47.47l-48,83.14l-69.99-26.22c-19.36,17.26-42.24,30.66-67.44,38.99L304,512h-96l-12.28-73.67
	c-25.19-8.32-48.07-21.72-67.44-38.99L58.3,425.57l-48-83.14l57.66-47.47C65.37,282.38,64,269.35,64,256s1.37-26.38,3.96-38.96
	L10.3,169.57l48-83.14l69.99,26.22c19.36-17.26,42.24-30.66,67.44-38.99L208,0h96l12.28,73.67c25.19,8.32,48.07,21.72,67.44,38.99
	l69.99-26.22l48,83.14l-57.66,47.47c2.59,12.58,3.96,25.61,3.96,38.96S446.63,282.38,444.04,294.96z M256,176
	c-44.18,0-80,35.82-80,80s35.82,80,80,80s80-35.82,80-80S300.18,176,256,176z"/>
</svg>
