<?xml version="1.0" encoding="utf-8"?>
<!-- Generator: Adobe Illustrator 22.1.0, SVG Export Plug-In . SVG Version: 6.00 Build 0)  -->
<svg version="1.2" baseProfile="tiny" id="レイヤー_1"
	 xmlns="http://www.w3.org/2000/svg" xmlns:xlink="http://www.w3.org/1999/xlink" x="0px" y="0px" viewBox="0 0 512 512"
	 xml:space="preserve">
<path d="M160,432c0,44.18-35.82,80-80,80S0,476.18,0,432s35.82-80,80-80S160,387.82,160,432z M471.75,312.69
	c-25.79-60.97-62.7-115.72-109.71-162.73c-47.01-47.01-101.76-83.92-162.73-109.71C136.16,13.54,69.1,0,0,0v80
	c58.34,0,114.91,11.42,168.14,33.93c51.44,21.76,97.64,52.91,137.33,92.6c39.69,39.69,70.84,85.89,92.6,137.33
	C420.58,397.09,432,453.66,432,512h80C512,442.9,498.46,375.84,471.75,312.69z M316.95,378.09
	c-17.33-40.97-42.13-77.75-73.71-109.33c-31.58-31.58-68.36-56.38-109.33-73.71C91.48,177.1,46.42,168,0,168v80
	c70.52,0,136.81,27.46,186.68,77.32C236.54,375.19,264,441.48,264,512h80C344,465.58,334.9,420.52,316.95,378.09z"/>
</svg>
