<?xml version="1.0" encoding="utf-8"?>
<!-- Generator: Adobe Illustrator 22.1.0, SVG Export Plug-In . SVG Version: 6.00 Build 0)  -->
<svg version="1.2" baseProfile="tiny" id="レイヤー_1"
	 xmlns="http://www.w3.org/2000/svg" xmlns:xlink="http://www.w3.org/1999/xlink" x="0px" y="0px" viewBox="0 0 512 512"
	 xml:space="preserve">
<path d="M96,512c-52.93,0-96-43.07-96-96s43.07-96,96-96s96,43.07,96,96S148.93,512,96,512z M96,352c-35.29,0-64,28.71-64,64
	s28.71,64,64,64s64-28.71,64-64S131.29,352,96,352z"/>
<path d="M512,512h-32c0-64.81-12.69-127.67-37.71-186.83c-24.17-57.16-58.79-108.49-102.88-152.58
	c-44.09-44.09-95.42-78.7-152.58-102.88C127.67,44.69,64.81,32,0,32V0c69.11,0,136.17,13.54,199.3,40.24
	c60.97,25.79,115.72,62.7,162.74,109.72c47.02,47.02,83.93,101.77,109.72,162.74C498.46,375.83,512,442.89,512,512z"/>
<path d="M352,512h-32c0-85.47-33.29-165.83-93.73-226.27C165.83,225.29,85.47,192,0,192v-32c47.51,0,93.61,9.31,137.02,27.67
	c41.92,17.73,79.56,43.11,111.88,75.43s57.7,69.96,75.43,111.88C342.69,418.39,352,464.49,352,512z"/>
</svg>
