<?xml version="1.0" encoding="utf-8"?>
<!-- Generator: Adobe Illustrator 23.0.0, SVG Export Plug-In . SVG Version: 6.00 Build 0)  -->
<svg version="1.2" baseProfile="tiny" id="レイヤー_1"
	 xmlns="http://www.w3.org/2000/svg" xmlns:xlink="http://www.w3.org/1999/xlink" x="0px" y="0px" viewBox="0 0 512 512"
	 xml:space="preserve">
<path d="M276.89,32l7.82,46.93l3.18,19.06l18.35,6.06c20.81,6.88,39.72,17.81,56.18,32.49l14.42,12.86l18.1-6.78l44.6-16.71
	l20.89,36.19l-36.73,30.24l-14.9,12.27l3.9,18.9c2.19,10.62,3.3,21.56,3.3,32.5s-1.11,21.88-3.3,32.5l-3.9,18.9l14.9,12.27
	l36.73,30.24l-20.89,36.19l-44.6-16.71l-18.1-6.78l-14.42,12.86c-16.46,14.68-35.37,25.61-56.18,32.49l-18.35,6.06l-3.18,19.06
	L276.89,480h-41.78l-7.82-46.93l-3.18-19.06l-18.35-6.06c-20.81-6.88-39.72-17.81-56.18-32.49l-14.42-12.86l-18.1,6.78l-44.6,16.71
	l-20.89-36.19l36.73-30.24l14.9-12.27l-3.9-18.9C97.11,277.88,96,266.94,96,256s1.11-21.88,3.3-32.5l3.9-18.9l-14.9-12.27
	l-36.73-30.24l20.89-36.19l44.6,16.71l18.1,6.78l14.42-12.86c16.46-14.68,35.37-25.61,56.18-32.49l18.35-6.06l3.18-19.06L235.11,32
	H276.89 M304,0h-96l-12.28,73.67c-25.19,8.32-48.07,21.72-67.44,38.99L58.3,86.43l-48,83.14l57.66,47.47
	C65.37,229.62,64,242.65,64,256s1.37,26.38,3.96,38.96L10.3,342.43l48,83.14l69.99-26.22c19.36,17.26,42.24,30.66,67.44,38.99
	L208,512h96l12.28-73.67c25.19-8.32,48.07-21.72,67.44-38.99l69.99,26.22l48-83.14l-57.66-47.47c2.59-12.58,3.96-25.61,3.96-38.96
	s-1.37-26.38-3.96-38.96l57.66-47.47l-48-83.14l-69.99,26.22c-19.36-17.26-42.24-30.66-67.44-38.99L304,0L304,0z M256,192
	c35.29,0,64,28.71,64,64s-28.71,64-64,64s-64-28.71-64-64S220.71,192,256,192 M256,160c-53.02,0-96,42.98-96,96s42.98,96,96,96
	s96-42.98,96-96S309.02,160,256,160L256,160z"/>
</svg>
