<?xml version="1.0" encoding="utf-8"?>
<!-- Generator: Adobe Illustrator 23.0.0, SVG Export Plug-In . SVG Version: 6.00 Build 0)  -->
<svg version="1.2" baseProfile="tiny" id="レイヤー_1"
	 xmlns="http://www.w3.org/2000/svg" xmlns:xlink="http://www.w3.org/1999/xlink" x="0px" y="0px" viewBox="0 0 512 512"
	 xml:space="preserve">
<path d="M96,512c-52.93,0-96-43.07-96-96s43.07-96,96-96s96,43.07,96,96S148.93,512,96,512z M96,352c-35.29,0-64,28.71-64,64
	s28.71,64,64,64s64-28.71,64-64S131.29,352,96,352z M471.76,312.7c-25.79-60.97-62.7-115.72-109.72-162.74
	C315.02,102.95,260.27,66.03,199.3,40.24C136.17,13.54,69.11,0,0,0v32c64.81,0,127.67,12.69,186.83,37.71
	c57.16,24.17,108.49,58.79,152.58,102.88c44.09,44.09,78.7,95.42,102.88,152.58C467.31,384.33,480,447.19,480,512h32
	C512,442.89,498.46,375.83,471.76,312.7z M324.33,374.98c-17.73-41.92-43.11-79.56-75.43-111.88s-69.96-57.7-111.88-75.43
	C93.61,169.31,47.51,160,0,160v32c85.47,0,165.83,33.29,226.27,93.73C286.71,346.17,320,426.53,320,512h32
	C352,464.49,342.69,418.39,324.33,374.98z"/>
</svg>
