<?xml version="1.0" encoding="utf-8"?>
<!-- Generator: Adobe Illustrator 23.0.0, SVG Export Plug-In . SVG Version: 6.00 Build 0)  -->
<svg version="1.2" baseProfile="tiny" id="レイヤー_1"
	 xmlns="http://www.w3.org/2000/svg" xmlns:xlink="http://www.w3.org/1999/xlink" x="0px" y="0px" viewBox="0 0 512 512"
	 xml:space="preserve">
<polygon points="448,352 448,240 272,240 272,160 352,160 352,32 160,32 160,160 240,160 240,240 64,240 64,352 0,352 0,480 
	160,480 160,352 96,352 96,272 240,272 240,352 176,352 176,480 336,480 336,352 272,352 272,272 416,272 416,352 352,352 352,480 
	512,480 512,352 "/>
</svg>
