<?xml version="1.0" encoding="utf-8"?>
<!-- Generator: Adobe Illustrator 22.1.0, SVG Export Plug-In . SVG Version: 6.00 Build 0)  -->
<svg version="1.2" baseProfile="tiny" id="レイヤー_1"
	 xmlns="http://www.w3.org/2000/svg" xmlns:xlink="http://www.w3.org/1999/xlink" x="0px" y="0px" viewBox="0 0 512 512"
	 xml:space="preserve">
<path d="M512,82H0v352h512V82z M496,339.43l-94.64-67.97L496,203.49V339.43z M16,98h480v85.79l-207.34,148.9
	c-19.54,14.03-45.79,14.03-65.33,0L16,183.79V98z M16,203.49l94.64,67.97L16,339.43V203.49z M496,418H16v-58.87l108.36-77.82
	L214,345.69c12.56,9.02,27.28,13.53,42,13.53c14.72,0,29.44-4.51,42-13.53l89.64-64.38L496,359.13V418z"/>
</svg>
