<?xml version="1.0" encoding="utf-8"?>
<!-- Generator: Adobe Illustrator 22.1.0, SVG Export Plug-In . SVG Version: 6.00 Build 0)  -->
<svg version="1.2" baseProfile="tiny" id="レイヤー_1"
	 xmlns="http://www.w3.org/2000/svg" xmlns:xlink="http://www.w3.org/1999/xlink" x="0px" y="0px" viewBox="0 0 512 512"
	 xml:space="preserve">
<path d="M437.02,74.98C388.67,26.63,324.38,0,256,0S123.33,26.63,74.98,74.98S0,187.62,0,256s26.63,132.67,74.98,181.02
	S187.62,512,256,512s132.67-26.63,181.02-74.98S512,324.38,512,256S485.37,123.33,437.02,74.98z M238,128.56
	c-21.18-0.82-41.77-3.08-61.26-6.67c3.37-9.2,7.11-17.94,11.21-26.14c14.29-28.58,31.88-47.99,50.05-55.84V128.56z M238,164.58V238
	h-82.65c1.1-28.69,4.84-56.24,10.97-81.51C189.13,160.93,213.25,163.68,238,164.58z M238,274v73.42
	c-24.77,0.9-48.89,3.64-71.69,8.07c-6.13-25.26-9.86-52.81-10.96-81.49H238z M238,383.44v88.65c-18.17-7.85-35.76-27.26-50.05-55.84
	c-4.1-8.2-7.84-16.95-11.22-26.15C196.21,386.51,216.8,384.25,238,383.44z M274,383.44c21.18,0.82,41.77,3.08,61.25,6.67
	c-3.37,9.2-7.12,17.94-11.22,26.14c-14.29,28.58-31.88,47.99-50.04,55.84V383.44z M274,347.42V274h82.65
	c-1.1,28.69-4.84,56.24-10.97,81.51C322.87,351.07,298.75,348.32,274,347.42z M274,238v-73.42c24.77-0.9,48.89-3.64,71.68-8.07
	c6.13,25.26,9.87,52.81,10.97,81.49H274z M274,128.56V39.92c18.16,7.85,35.74,27.26,50.04,55.84c4.1,8.2,7.84,16.95,11.22,26.15
	C315.79,125.49,295.2,127.75,274,128.56z M356.24,79.66c-4.92-9.84-10.21-18.83-15.82-26.94c25.65,10.65,49.25,26.24,69.64,46.25
	c-12.12,5.63-25.39,10.53-39.55,14.65C366.3,101.62,361.54,90.26,356.24,79.66z M155.75,79.66c-5.3,10.59-10.06,21.95-14.26,33.94
	c-14.16-4.12-27.42-9.02-39.54-14.64c20.38-20,43.97-35.58,69.61-46.23C165.96,60.83,160.67,69.82,155.75,79.66z M131.35,148.07
	c-6.79,28.03-10.89,58.43-12.02,89.93H36.73c3.24-40.31,17.35-78.4,40.91-110.86C93.77,135.38,111.85,142.4,131.35,148.07z
	 M119.33,274c1.13,31.49,5.23,61.89,12.02,89.92c-19.49,5.67-37.56,12.7-53.7,20.95C54.09,352.41,39.98,314.31,36.73,274H119.33z
	 M141.48,398.38c4.21,11.99,8.97,23.36,14.27,33.96c4.92,9.84,10.21,18.83,15.81,26.94c-25.65-10.65-49.24-26.24-69.62-46.25
	C114.05,407.4,127.32,402.5,141.48,398.38z M356.24,432.34c5.3-10.59,10.06-21.95,14.27-33.94c14.16,4.12,27.43,9.02,39.55,14.64
	c-20.39,20.01-43.98,35.59-69.63,46.24C346.03,451.17,351.31,442.19,356.24,432.34z M380.65,363.93
	c6.79-28.03,10.9-58.43,12.03-89.93h82.59c-3.24,40.31-17.35,78.4-40.91,110.86C418.23,376.62,400.14,369.6,380.65,363.93z
	 M392.67,238c-1.13-31.49-5.23-61.89-12.02-89.92c19.49-5.67,37.56-12.7,53.7-20.95c23.56,32.46,37.67,70.56,40.91,110.87H392.67z"
	/>
</svg>
