<?xml version="1.0" encoding="utf-8"?>
<!-- Generator: Adobe Illustrator 23.0.0, SVG Export Plug-In . SVG Version: 6.00 Build 0)  -->
<svg version="1.2" baseProfile="tiny" id="レイヤー_1"
	 xmlns="http://www.w3.org/2000/svg" xmlns:xlink="http://www.w3.org/1999/xlink" x="0px" y="0px" viewBox="0 0 512 512"
	 xml:space="preserve">
<path d="M256,0C187.62,0,123.33,26.63,74.98,74.98S0,187.62,0,256s26.63,132.67,74.98,181.02S187.62,512,256,512
	s132.67-26.63,181.02-74.98S512,324.38,512,256s-26.63-132.67-74.98-181.02S324.38,0,256,0z M425.71,86.29
	c2.98,2.98,5.87,6.03,8.67,9.14c-19.13,10.37-41.48,18.87-66.02,25.25c-4.97-15.59-10.82-30.22-17.53-43.62
	c-11.72-23.44-25.41-41.91-40.41-54.88C353.73,32.17,393.5,54.08,425.71,86.29z M264,150.27c32.57-0.51,64.15-4.14,93.31-10.53
	c8.97,32.93,14.01,69.8,14.62,108.26H264V150.27z M264,134.26V16.59c26.99,3.92,52.49,27.58,72.52,67.63
	c6.18,12.35,11.6,25.82,16.23,40.17C325.06,130.36,295.03,133.76,264,134.26z M248,16.59v117.67c-30.99-0.5-61.03-3.9-88.75-9.89
	c4.63-14.35,10.05-27.81,16.22-40.16C195.5,44.16,221,20.5,248,16.59z M248,150.26V248H140.07c0.61-38.47,5.65-75.34,14.62-108.27
	C183.87,146.13,215.47,149.75,248,150.26z M124.07,248H16.15c1.67-51.44,19.46-100.09,50.96-140.1
	c20.73,11.61,45.17,21.07,72.03,28.09C129.87,170.18,124.69,208.33,124.07,248z M124.07,264c0.62,39.67,5.8,77.8,15.06,112
	c-26.86,7.02-51.27,16.49-72.02,28.11c-31.5-40.02-49.29-88.66-50.96-140.1H124.07z M140.07,264H248v97.73
	c-32.57,0.51-64.15,4.14-93.31,10.53C145.72,339.33,140.69,302.46,140.07,264z M248,377.74v117.68c-27-3.92-52.5-27.57-72.53-67.63
	c-6.17-12.35-11.59-25.82-16.22-40.17C186.94,381.64,216.97,378.24,248,377.74z M264,495.41V377.74c30.99,0.5,61.03,3.9,88.74,9.89
	c-4.63,14.35-10.05,27.81-16.23,40.16C316.49,467.84,290.99,491.5,264,495.41z M264,361.74V264h107.93
	c-0.61,38.46-5.65,75.34-14.62,108.27C328.12,365.87,296.53,362.25,264,361.74z M387.93,264h107.92
	c-1.67,51.44-19.46,100.09-50.96,140.1c-20.73-11.61-45.17-21.07-72.03-28.09C382.12,341.81,387.31,303.67,387.93,264z M387.93,248
	c-0.62-39.66-5.8-77.8-15.07-112c26.86-7.02,51.28-16.49,72.03-28.11c31.5,40.02,49.29,88.66,50.96,140.1H387.93z M201.57,22.18
	c-15,12.98-28.69,31.44-40.41,54.88c-6.7,13.4-12.55,28.02-17.52,43.6c-24.54-6.38-46.9-14.87-66.02-25.23
	c2.8-3.11,5.69-6.16,8.67-9.14C118.5,54.08,158.26,32.17,201.57,22.18z M86.29,425.71c-2.98-2.98-5.87-6.03-8.67-9.14
	c19.13-10.37,41.48-18.87,66.02-25.25c4.96,15.59,10.82,30.22,17.52,43.62c11.72,23.44,25.41,41.91,40.41,54.88
	C158.26,479.83,118.5,457.92,86.29,425.71z M310.42,489.83c15-12.98,28.69-31.44,40.41-54.88c6.7-13.4,12.56-28.02,17.52-43.6
	c24.54,6.38,46.91,14.87,66.03,25.23c-2.8,3.11-5.69,6.16-8.67,9.14C393.5,457.92,353.73,479.83,310.42,489.83z"/>
</svg>
