<?xml version="1.0" encoding="utf-8"?>
<!-- Generator: Adobe Illustrator 23.0.0, SVG Export Plug-In . SVG Version: 6.00 Build 0)  -->
<svg version="1.2" baseProfile="tiny" id="レイヤー_1"
	 xmlns="http://www.w3.org/2000/svg" xmlns:xlink="http://www.w3.org/1999/xlink" x="0px" y="0px" viewBox="0 0 512 512"
	 xml:space="preserve">
<path d="M88,512c-48.52,0-88-39.48-88-88s39.48-88,88-88s88,39.48,88,88S136.52,512,88,512z M88,352c-39.7,0-72,32.3-72,72
	s32.3,72,72,72s72-32.3,72-72S127.7,352,88,352z M471.76,312.7c-25.79-60.97-62.7-115.72-109.72-162.74S260.27,66.03,199.3,40.24
	C136.17,13.54,69.12,0,0,0v16c66.96,0,131.92,13.11,193.06,38.97c59.06,24.98,112.11,60.75,157.66,106.3
	c45.55,45.55,81.32,98.6,106.3,157.66C482.89,380.08,496,445.04,496,512h16C512,442.88,498.46,375.83,471.76,312.7z M231.93,280.07
	C169.98,218.12,87.61,184,0,184v16c83.34,0,161.69,32.45,220.62,91.38S312,428.66,312,512h16
	C328,424.39,293.88,342.02,231.93,280.07z"/>
</svg>
