<?xml version="1.0" encoding="utf-8"?>
<!-- Generator: Adobe Illustrator 22.1.0, SVG Export Plug-In . SVG Version: 6.00 Build 0)  -->
<svg version="1.2" baseProfile="tiny" id="レイヤー_1"
	 xmlns="http://www.w3.org/2000/svg" xmlns:xlink="http://www.w3.org/1999/xlink" x="0px" y="0px" viewBox="0 0 512 512"
	 xml:space="preserve">
<path d="M88,512c-48.52,0-88-39.48-88-88s39.48-88,88-88s88,39.48,88,88S136.52,512,88,512z M88,352c-39.7,0-72,32.3-72,72
	s32.3,72,72,72s72-32.3,72-72S127.7,352,88,352z"/>
<path d="M512,512h-16c0-66.96-13.11-131.92-38.97-193.06c-24.98-59.06-60.75-112.11-106.3-157.66
	c-45.55-45.55-98.6-81.32-157.66-106.3C131.92,29.11,66.96,16,0,16V0c69.12,0,136.17,13.54,199.3,40.24
	c60.97,25.79,115.72,62.7,162.74,109.72s83.93,101.77,109.72,162.74C498.46,375.83,512,442.88,512,512z"/>
<path d="M328,512h-16c0-83.34-32.45-161.69-91.38-220.62S83.34,200,0,200v-16c87.61,0,169.98,34.12,231.93,96.07
	C293.88,342.02,328,424.39,328,512z"/>
</svg>
