<?xml version="1.0" encoding="utf-8"?>
<!-- Generator: Adobe Illustrator 22.1.0, SVG Export Plug-In . SVG Version: 6.00 Build 0)  -->
<svg version="1.2" baseProfile="tiny" id="レイヤー_1"
	 xmlns="http://www.w3.org/2000/svg" xmlns:xlink="http://www.w3.org/1999/xlink" x="0px" y="0px" viewBox="0 0 384 512"
	 xml:space="preserve">
<g>
	<path d="M256,0H0v512h384V128L256,0z M354.75,128H256V29.25L354.75,128z M368,496H16V16h224v128h128V496z"/>
</g>
<path d="M304,224v16h-32v-16H112v16H80v-16H48v192h32v-16h32v16h160v-16h32v16h32V224H304z M112,368H80v-32h32V368z M112,304H80v-32
	h32V304z M240,380h-96V256h96V380z M304,368h-32v-32h32V368z M304,304h-32v-32h32V304z"/>
</svg>
