<?xml version="1.0" encoding="utf-8"?>
<!-- Generator: Adobe Illustrator 22.1.0, SVG Export Plug-In . SVG Version: 6.00 Build 0)  -->
<svg version="1.2" baseProfile="tiny" id="レイヤー_1"
	 xmlns="http://www.w3.org/2000/svg" xmlns:xlink="http://www.w3.org/1999/xlink" x="0px" y="0px" viewBox="0 0 512 512"
	 xml:space="preserve">
<path d="M328.29,277.28c28.05-3.75,90.31-9.9,110.56,10.05v0c15.6,15.6,13.8,61.05-27.75,60.9c-25.5,0-64.05-11.85-96.91-29.85
	c-38.85,6.3-82.96,22.8-123.01,36c-18,31.05-33.3,53.4-46.95,68.25c-45.3,49.5-84.91,15.6-79.66-9.6
	c7.05-34.65,57-62.55,88.21-78.61c18.6-32.55,45.3-90.31,63.15-132.91c-13.05-50.1-20.1-89.26-12.6-116.71
	c7.35-26.85,60.3-31.95,66.9,10.2c8.4,26.55-3.15,70.35-9.6,97.36C275.49,231.67,296.49,258.08,328.29,277.28z M95.03,420.84
	c0,1.05,20.1-8.25,53.25-61.2C137.93,369.23,103.88,396.98,95.03,420.84z M237.84,87.36c-4.35,0-4.65,46.95,3.15,71.4
	C249.54,143.62,250.89,87.36,237.84,87.36z M238.44,230.77c-11.7,30.75-26.25,65.85-43.2,95.56c27.75-10.65,59.4-26.25,95.86-33.3
	C271.59,278.33,252.99,257.33,238.44,230.77z M425.35,317.48c6.3-4.05-3.75-18.15-65.25-13.65
	C416.65,327.98,425.35,317.48,425.35,317.48z"/>
</svg>
