<?xml version="1.0" encoding="utf-8"?>
<!-- Generator: Adobe Illustrator 22.1.0, SVG Export Plug-In . SVG Version: 6.00 Build 0)  -->
<svg version="1.2" baseProfile="tiny" id="レイヤー_1"
	 xmlns="http://www.w3.org/2000/svg" xmlns:xlink="http://www.w3.org/1999/xlink" x="0px" y="0px" viewBox="0 0 416 512"
	 xml:space="preserve">
<path d="M416,48v224h-32V102.63L193.61,293.02l-22.63-22.63L361.37,80H192V48H416z M384,400c0,17.64-14.36,32-32,32H64
	c-17.64,0-32-14.36-32-32V112c0-17.64,14.36-32,32-32h64V48H64C28.65,48,0,76.65,0,112v288c0,35.35,28.65,64,64,64h288
	c35.35,0,64-28.65,64-64v-64h-32V400z"/>
</svg>
