<?xml version="1.0" encoding="utf-8"?>
<!-- Generator: Adobe Illustrator 23.0.0, SVG Export Plug-In . SVG Version: 6.00 Build 0)  -->
<svg version="1.2" baseProfile="tiny" id="レイヤー_1"
	 xmlns="http://www.w3.org/2000/svg" xmlns:xlink="http://www.w3.org/1999/xlink" x="0px" y="0px" viewBox="0 0 448 512"
	 xml:space="preserve">
<path d="M351.28,309.67L224,182.39L96.72,309.67l-11.31-11.31L224,159.77l138.59,138.59L351.28,309.67z M0,96
	c0-35.35,28.65-64,64-64h320c35.35,0,64,28.65,64,64v320c0,35.35-28.65,64-64,64H64c-35.35,0-64-28.65-64-64V96L0,96z M380,48H68
	c-28.72,0-52,23.28-52,52v312c0,28.72,23.28,52,52,52h312c28.72,0,52-23.28,52-52V100C432,71.28,408.72,48,380,48z"/>
</svg>
