<?xml version="1.0" encoding="utf-8"?>
<!-- Generator: Adobe Illustrator 23.0.0, SVG Export Plug-In . SVG Version: 6.00 Build 0)  -->
<svg version="1.2" baseProfile="tiny" id="レイヤー_1"
	 xmlns="http://www.w3.org/2000/svg" xmlns:xlink="http://www.w3.org/1999/xlink" x="0px" y="0px" viewBox="0 0 448 512"
	 xml:space="preserve">
<path d="M277.95,128.72L150.67,256l127.28,127.28l-11.31,11.31L128.05,256l138.59-138.59L277.95,128.72z M384,32
	c35.35,0,64,28.65,64,64v320c0,35.35-28.65,64-64,64H64c-35.35,0-64-28.65-64-64V96c0-35.35,28.65-64,64-64H384L384,32z M432,412
	V100c0-28.72-23.28-52-52-52H68c-28.72,0-52,23.28-52,52v312c0,28.72,23.28,52,52,52h312C408.72,464,432,440.72,432,412z"/>
</svg>
