<?xml version="1.0" encoding="utf-8"?>
<!-- Generator: Adobe Illustrator 23.0.0, SVG Export Plug-In . SVG Version: 6.00 Build 0)  -->
<svg version="1.2" baseProfile="tiny" id="レイヤー_1"
	 xmlns="http://www.w3.org/2000/svg" xmlns:xlink="http://www.w3.org/1999/xlink" x="0px" y="0px" viewBox="0 0 448 512"
	 xml:space="preserve">
<path d="M96.72,201.33L224,328.61l127.28-127.28l11.31,11.31L224,351.23L85.41,212.64L96.72,201.33z M448,416
	c0,35.35-28.65,64-64,64H64c-35.35,0-64-28.65-64-64V96c0-35.35,28.65-64,64-64h320c35.35,0,64,28.65,64,64V416L448,416z M68,464
	h312c28.72,0,52-23.28,52-52V100c0-28.72-23.28-52-52-52H68c-28.72,0-52,23.28-52,52v312C16,440.72,39.28,464,68,464z"/>
</svg>
