<?xml version="1.0" encoding="utf-8"?>
<!-- Generator: Adobe Illustrator 23.0.0, SVG Export Plug-In . SVG Version: 6.00 Build 0)  -->
<svg version="1.2" baseProfile="tiny" id="レイヤー_1"
	 xmlns="http://www.w3.org/2000/svg" xmlns:xlink="http://www.w3.org/1999/xlink" x="0px" y="0px" viewBox="0 0 448 512"
	 xml:space="preserve">
<path d="M329.14,334.51L224,229.37L118.86,334.51l-33.94-33.94L224,161.49l139.08,139.08L329.14,334.51z M384,32
	c35.35,0,64,28.65,64,64v320c0,35.35-28.65,64-64,64H64c-35.35,0-64-28.65-64-64V96c0-35.35,28.65-64,64-64H384L384,32z M370.67,80
	H77.33C61.16,80,48,93.16,48,109.33v293.33C48,418.84,61.16,432,77.33,432h293.33c16.17,0,29.33-13.16,29.33-29.33V109.33
	C400,93.16,386.84,80,370.67,80"/>
</svg>
