<?xml version="1.0" encoding="utf-8"?>
<!-- Generator: Adobe Illustrator 22.1.0, SVG Export Plug-In . SVG Version: 6.00 Build 0)  -->
<svg version="1.2" baseProfile="tiny" id="レイヤー_1"
	 xmlns="http://www.w3.org/2000/svg" xmlns:xlink="http://www.w3.org/1999/xlink" x="0px" y="0px" viewBox="0 0 512 512"
	 xml:space="preserve">
<circle cx="80" cy="432" r="80"/>
<path d="M512,512h-80c0-58.34-11.42-114.91-33.93-168.14c-21.76-51.44-52.91-97.64-92.6-137.33
	c-39.69-39.69-85.89-70.84-137.33-92.6C114.91,91.42,58.34,80,0,80V0c69.1,0,136.16,13.54,199.31,40.25
	c60.97,25.79,115.72,62.7,162.73,109.71c47.01,47.01,83.92,101.76,109.71,162.73C498.46,375.84,512,442.9,512,512z"/>
<path d="M344,512h-80c0-70.52-27.46-136.81-77.32-186.68C136.81,275.46,70.52,248,0,248v-80c46.42,0,91.48,9.1,133.91,27.05
	c40.97,17.33,77.75,42.13,109.33,73.71c31.58,31.58,56.38,68.36,73.71,109.33C334.9,420.52,344,465.58,344,512z"/>
</svg>
